<?xml version="1.0" encoding="UTF-8"?>
<!DOCTYPE svg PUBLIC "-//W3C//DTD SVG 1.1//EN" "http://www.w3.org/Graphics/SVG/1.1/DTD/svg11.dtd">
<svg version="1.1" xmlns="http://www.w3.org/2000/svg" xmlns:xlink="http://www.w3.org/1999/xlink" x="0" y="0" width="1280" height="768" viewBox="0, 0, 1280, 768">
  <g id="Layer_1">
    <g>
      <g>
        <path d="M0.5,0.5 L1280.5,0.5 L1280.5,768.5 L0.5,768.5 L0.5,0.5 z" fill="#0D76FF"/>
        <path d="M0.5,0.5 L1280.5,0.5 L1280.5,768.5 L0.5,768.5 L0.5,0.5 z" fill-opacity="0" stroke="#000000" stroke-width="1"/>
      </g>
      <g>
        <path d="M0.5,276.448 C44.463,231.877 113.884,211.538 172.299,204.085 C194.561,201.244 216.766,199.968 239.165,199.672 C305.899,201.016 376.078,210.414 435.896,244.897 C457.317,238.3 479.323,234.144 501.406,231.173 C523.668,228.333 545.873,227.056 568.272,226.76 C591.784,226.921 615.38,228.095 638.674,231.724 C698.656,168.019 801.276,151.969 881.05,150.913 C949.008,152.16 1025.789,162.804 1085.72,200.853 C1151.823,206.071 1224.27,219.935 1278.545,264.296 L1280.5,265.95 L1280.5,767.167 L0.5,767.167 L0.5,276.448 z" fill="#05B602"/>
        <path d="M0.5,276.448 C44.463,231.877 113.884,211.538 172.299,204.085 C194.561,201.244 216.766,199.968 239.165,199.672 C305.899,201.016 376.078,210.414 435.896,244.897 C457.317,238.3 479.323,234.144 501.406,231.173 C523.668,228.333 545.873,227.056 568.272,226.76 C591.784,226.921 615.38,228.095 638.674,231.724 C698.656,168.019 801.276,151.969 881.05,150.913 C949.008,152.16 1025.789,162.804 1085.72,200.853 C1151.823,206.071 1224.27,219.935 1278.545,264.296 L1280.5,265.95 L1280.5,767.167 L0.5,767.167 L0.5,276.448 z" fill-opacity="0" stroke="#000000" stroke-width="3"/>
      </g>
    </g>
    <g>
      <path d="M1033.5,359.5 L1035.5,359.5 L1035.5,359.5 L1033.5,359.5 L1033.5,359.5 z" fill="#05B602"/>
      <path d="M1033.5,359.5 L1035.5,359.5 L1035.5,359.5 L1033.5,359.5 L1033.5,359.5 z" fill-opacity="0" stroke="#000000" stroke-width="3"/>
    </g>
    <path d="M719.608,427.717 C783.62,355.55 892.676,347.751 963.19,410.297 C992.997,376.693 1053.781,381.933 1098.954,422.002" fill-opacity="0" stroke="#000000" stroke-width="1"/>
    <path d="M127.487,619.833 C191.5,547.666 300.555,539.867 371.069,602.414 C400.876,568.809 461.66,574.049 506.833,614.118" fill-opacity="0" stroke="#000000" stroke-width="1"/>
  </g>
</svg>
