<?xml version="1.0" encoding="UTF-8"?>
<!DOCTYPE svg PUBLIC "-//W3C//DTD SVG 1.1//EN" "http://www.w3.org/Graphics/SVG/1.1/DTD/svg11.dtd">
<svg version="1.1" xmlns="http://www.w3.org/2000/svg" xmlns:xlink="http://www.w3.org/1999/xlink" x="0" y="0" width="567.757" height="95.351" viewBox="0, 0, 567.757, 95.351">
  <defs>
    <clipPath id="Clip_1">
      <path d="M-1.5,-1 L82.943,-1 L82.943,95.079 L-1.5,95.079 z M39.229,25.461 C40.693,25.517 42.009,25.9 43.235,26.625 C43.775,26.949 44.157,27.366 44.43,27.929 C44.846,28.79 45.109,29.704 45.221,30.688 C45.346,31.776 45.331,32.838 45.177,33.884 C45.021,34.948 44.798,35.823 44.522,36.485 C43.702,38.502 42.328,40.294 40.343,41.922 C40.243,41.991 38.931,42.941 38.764,43.032 C38.167,43.302 38.571,43.122 37.546,43.556 L37.555,41.27 C37.596,38.681 37.657,36.085 37.738,33.487 L37.745,33.249 L37.718,32.944 C37.491,30.788 36.968,29.043 36.098,27.638 C35.251,26.516 35.729,27.057 34.652,26.03 C36.141,25.63 37.683,25.392 39.228,25.461 z M40.977,9 L40.977,9 C37.935,9 34.663,9.452 31.152,10.352 C27.6,11.263 24.267,12.633 21.162,14.459 C17.937,16.356 15.236,18.726 13.079,21.553 C10.704,24.668 9.5,28.361 9.5,32.504 C9.5,34.549 10.404,36.427 12.087,38.034 C14.005,39.865 16.007,40.6 18.15,40.064 L18.358,40.012 L18.616,39.917 C20.029,39.242 21.517,38.545 22.396,37.139 C22.371,37.992 22.383,37.593 22.362,38.334 C22.355,38.658 22.323,40.978 22.319,41.292 C22.278,45.234 22.257,49.234 22.257,53.296 C22.257,57.385 22.319,61.374 22.443,65.26 C22.568,69.169 22.756,72.667 23.006,75.76 L23.047,76.259 L23.087,76.256 C23.117,76.516 23.106,76.417 23.121,76.552 C23.144,76.749 23.162,76.856 23.193,76.977 C23.224,77.097 23.495,77.869 23.636,78.302 C23.972,79.146 24.374,79.95 24.851,80.745 C25.354,81.583 25.898,82.325 26.487,82.973 C27.495,84.081 28.74,84.792 30.138,85.025 L30.424,85.072 L30.796,85.079 C32.579,85.079 34.177,84.621 35.515,83.701 C37.319,82.461 38.23,80.465 38.23,78.012 L38.225,77.815 C38.064,74.748 37.964,71.633 37.923,68.455 L37.884,65.933 L38.634,66.392 C41.058,67.887 43.485,69.424 45.912,71.001 C48.32,72.567 50.627,74.131 52.831,75.694 C55.006,77.236 56.957,78.715 58.684,80.127 L58.773,80.2 L58.892,80.286 C60.823,81.665 62.949,82.278 65.124,82.053 C67.761,81.78 69.844,80.222 70.904,77.748 C72.265,74.618 72.32,71.956 70.884,69.756 C70.118,68.58 69.408,67.667 68.706,66.965 L68.522,66.781 L68.256,66.577 C64.42,63.742 60.603,61.114 56.804,58.693 C56.087,58.238 54.619,57.307 54.556,57.266 C54.054,56.948 53.79,56.781 53.489,56.592 C52.27,55.829 51.05,55.069 49.831,54.306 C53.443,51.337 56.67,47.876 58.811,43.682 C61.868,37.859 62.397,31.295 60.407,24.188 C59.216,19.918 56.946,16.315 53.65,13.469 C50.215,10.502 45.936,9 40.977,9 z"/>
    </clipPath>
    <filter id="Shadow_2">
      <feGaussianBlur in="SourceAlpha" stdDeviation="3.5"/>
      <feOffset dx="3" dy="2" result="offsetblur"/>
      <feFlood flood-color="#000000"/>
      <feComposite in2="offsetblur" operator="in"/>
    </filter>
    <radialGradient id="Gradient_1" gradientUnits="userSpaceOnUse" cx="50.056" cy="62.813" r="47.853">
      <stop offset="0" stop-color="#FE914F"/>
      <stop offset="0.355" stop-color="#ED2713"/>
      <stop offset="1" stop-color="#9E0000"/>
    </radialGradient>
    <clipPath id="Clip_3">
      <path d="M55.503,1.085 L136.887,1.085 L136.887,97.36 L55.503,97.36 z M95.621,37.766 C96.004,38.916 96.381,40.068 96.757,41.22 C96.956,41.836 97.363,43.1 97.409,43.243 C97.724,44.206 98.093,45.15 98.453,46.097 C97.964,46.184 97.474,46.272 96.979,46.31 C96.718,46.335 96.549,46.351 96.351,46.37 C96.041,46.401 95.708,46.435 95.319,46.476 C94.253,46.592 93.187,46.71 92.122,46.837 C92.431,45.941 92.731,45.041 93.09,44.164 C93.148,44.018 93.407,43.374 93.439,43.296 C93.62,42.847 93.794,42.411 93.997,41.899 C94.542,40.523 95.086,39.146 95.621,37.766 z M97.702,11.085 L97.742,11.165 C96.275,11.319 97.129,11.168 95.214,11.776 L94.342,12.214 C94.213,12.206 94.293,12.211 94.1,12.199 C93.993,12.194 93.92,12.195 93.832,12.206 C93.795,12.211 93.359,12.295 93.04,12.347 C91.391,12.726 90.072,13.748 89.104,15.296 C86.531,19.667 84.076,24.427 81.681,29.679 C79.305,34.889 77.118,40.264 75.118,45.804 C73.118,51.345 71.368,56.888 69.868,62.432 C68.35,68.038 67.252,73.382 66.574,78.465 C66.27,81.048 66.946,83.343 68.561,85.119 C70.52,86.798 72.828,87.813 75.456,87.16 L75.467,87.208 L75.976,87.061 L76.033,87.045 L76.07,87.039 L76.582,86.933 L76.559,86.84 C78.272,86.144 79.704,84.926 80.607,83.299 C81.43,81.909 82.094,80.357 82.595,78.65 L82.642,78.479 C83.368,75.496 84.151,72.544 84.994,69.612 C85.475,67.942 86.098,65.779 86.132,65.66 C86.211,65.387 86.247,65.261 86.396,64.745 C86.547,64.225 86.697,63.705 86.848,63.185 C87.679,63.134 88.511,63.083 89.343,63.033 C89.977,62.993 90.318,62.968 90.711,62.932 C90.99,62.906 94.029,62.581 96.219,62.358 C96.959,62.263 98.541,62.061 98.729,62.036 C99.278,61.966 99.579,61.925 99.931,61.872 C101.465,61.638 102.998,61.394 104.532,61.161 C104.804,61.802 105.068,62.446 105.355,63.081 C105.32,63.002 106.233,65.013 106.957,66.623 C108.251,69.419 109.604,72.189 111.02,74.938 C111.352,75.601 111.814,76.338 112.393,77.127 C112.993,77.945 113.673,78.707 114.43,79.41 C115.254,80.175 116.127,80.805 117.049,81.297 C118.724,82.19 120.584,82.296 122.285,81.566 L122.485,81.474 C124.116,80.659 125.173,79.187 125.595,77.286 C125.837,76.198 125.928,75.047 125.87,73.836 C125.821,72.789 125.696,71.744 125.497,70.701 C125.331,69.828 125.207,69.186 125.122,68.764 L125.035,68.329 L124.995,68.209 L124.802,67.81 C123.685,65.495 122.607,63.119 121.568,60.682 C121.188,59.78 120.9,59.096 120.646,58.496 C120.627,58.452 120.307,57.695 120.25,57.56 C120.039,57.06 119.836,56.558 119.629,56.057 C120.391,55.47 120.096,55.708 120.524,55.358 C120.664,55.227 121.475,54.259 121.466,54.269 C122.973,52.2 123.211,49.699 122.215,47.21 C121.24,44.868 119.275,43.381 116.737,43.018 C115.926,42.943 114.823,42.818 115.058,42.841 C114.844,42.82 114.629,42.825 114.414,42.832 C114.079,41.909 113.744,40.987 113.408,40.065 C113.158,39.377 113.027,39.013 112.88,38.597 C112.766,38.273 111.622,34.985 110.815,32.676 C109.33,28.342 108.026,24.128 106.903,20.037 L106.833,19.783 L106.701,19.471 C105.987,17.864 105.38,16.631 104.851,15.718 C104.299,14.764 103.811,14.024 103.348,13.445 C102.493,12.377 101.558,11.692 100.403,11.362 C99.763,11.179 99.132,11.085 98.507,11.085 L97.702,11.085 z"/>
    </clipPath>
    <filter id="Shadow_4">
      <feGaussianBlur in="SourceAlpha" stdDeviation="3.5"/>
      <feOffset dx="3" dy="2" result="offsetblur"/>
      <feFlood flood-color="#000000"/>
      <feComposite in2="offsetblur" operator="in"/>
    </filter>
    <radialGradient id="Gradient_2" gradientUnits="userSpaceOnUse" cx="96.195" cy="42.601" r="37.633">
      <stop offset="0" stop-color="#FFF598"/>
      <stop offset="1" stop-color="#FFB713"/>
    </radialGradient>
    <clipPath id="Clip_5">
      <path d="M115.032,9.804 L191.89,9.804 L191.89,90.173 L115.032,90.173 z M173.74,19.805 L173.747,19.806 C171.438,19.84 170.055,20.228 168.152,21.608 C166.069,23.274 164.954,24.979 165.043,27.047 C164.258,34.926 163.715,40.36 163.159,45.839 C163.027,47.017 162.743,49.633 162.697,50 C162.58,50.862 162.451,51.723 162.326,52.584 C159.216,48.351 160.943,50.627 157.102,45.786 C154.927,43.142 152.543,40.545 149.949,37.993 C147.592,35.779 145.226,33.553 142.585,31.676 C142.42,31.162 142.266,30.645 142.096,30.133 C142.04,29.989 141.98,29.872 141.863,29.671 C141.853,29.654 141.537,29.123 141.387,28.865 C140.102,26.985 138.046,25.986 135.214,25.702 C133.098,25.467 131.157,26.399 129.519,28.295 C128.143,29.888 127.385,32.053 127.15,34.87 C126.984,36.697 126.817,39.197 126.651,42.352 C126.486,45.482 126.342,48.733 126.219,52.107 C126.094,55.508 126.032,58.766 126.032,61.882 C126.035,62.126 126.035,62.126 126.037,62.366 C126.046,63.208 126.05,63.581 126.059,64.049 C126.098,66.209 126.196,67.798 126.424,69.355 L126.431,69.354 L126.424,69.364 L126.427,69.386 L126.442,69.514 L126.502,70.016 L126.547,70.01 C126.962,72.066 127.535,74.128 128.718,75.888 C130.411,78.64 132.94,80.173 135.92,80.173 C139.471,80.173 141.883,78.351 141.883,75.068 L141.881,74.953 C141.72,69.713 141.72,64.5 141.881,59.307 C141.991,56.135 142.038,54.708 142.081,53.343 C142.098,52.808 142.088,53.074 142.109,52.546 C145.63,56.673 143.85,54.536 147.439,58.963 C149.237,61.24 150.913,63.475 152.467,65.668 C154.077,67.937 155.585,70.023 156.991,71.926 C158.484,73.88 160.326,75.358 162.518,76.37 C164.893,77.466 166.847,77.86 168.651,77.532 L168.823,77.497 C170.709,77.062 172.258,76.186 173.399,74.881 C174.47,73.658 175.179,72.007 175.652,69.759 C176.991,63.237 178.053,56.304 178.843,48.938 C179.624,41.669 180.302,34.542 180.877,27.557 L180.888,27.413 L180.89,27.229 C180.517,22.784 178.278,20.287 173.747,19.806 L173.75,19.805 L173.74,19.805 z"/>
    </clipPath>
    <filter id="Shadow_6">
      <feGaussianBlur in="SourceAlpha" stdDeviation="3.5"/>
      <feOffset dx="3" dy="2" result="offsetblur"/>
      <feFlood flood-color="#000000"/>
      <feComposite in2="offsetblur" operator="in"/>
    </filter>
    <radialGradient id="Gradient_3" gradientUnits="userSpaceOnUse" cx="150.093" cy="50.299" r="30.703">
      <stop offset="0" stop-color="#B3FF4B"/>
      <stop offset="0.523" stop-color="#68A02C"/>
      <stop offset="1" stop-color="#3C6320"/>
    </radialGradient>
    <clipPath id="Clip_7">
      <path d="M166.142,5.23 L236.424,5.23 L236.424,90.677 L166.142,90.677 z M202.848,32.413 C204.551,33.152 206.148,34.212 207.185,35.784 C208.846,38.243 209.633,41.053 209.568,44.322 C209.433,47.949 208.283,51.44 206.103,54.797 C205.527,55.606 204.55,57.021 204.422,57.184 C204.302,57.338 204.181,57.474 203.92,57.75 C203.716,57.965 203.849,57.825 203.523,58.168 C203.416,56.497 203.304,54.826 203.199,53.155 C203.175,52.721 203.16,52.334 203.136,51.587 C203.135,51.571 203.066,49.328 203.03,48.236 C202.93,42.962 202.841,37.688 202.848,32.413 z M197.258,15.23 L197.197,15.23 C195.28,15.347 192.791,15.452 192.659,15.463 C192.327,15.49 192.053,15.53 191.579,15.621 C191.37,15.66 190.016,15.931 189.462,16.039 C186.22,16.825 183.516,17.833 181.301,19.086 C179.226,20.271 177.864,21.868 177.324,23.846 C177.066,25.684 176.92,27.541 178.034,29.159 L177.981,29.193 L178.305,29.628 L178.368,29.712 L178.37,29.726 L178.641,30.209 L178.726,30.149 C179.621,31.224 180.685,32.182 181.995,32.716 C182.15,32.769 182.247,32.806 182.468,32.896 C182.979,33.104 183.22,33.182 183.56,33.214 C185.156,33.364 185.659,33.379 186.24,33.27 C186.43,33.234 186.62,33.185 186.875,33.108 L187.019,33.063 C187.048,38.128 187.173,43.191 187.305,48.253 C187.619,55.525 187.98,62.807 188.932,70.03 C188.66,70.511 188.372,70.984 188.114,71.474 C188.047,71.633 188.011,71.775 187.968,72.029 C187.973,71.996 187.864,72.679 187.808,72.998 C187.725,74.341 187.868,75.44 188.264,76.431 L188.421,76.823 L188.478,76.928 L188.723,77.271 C189.649,78.568 191.035,79.496 192.963,80.185 C194.949,80.894 197.326,80.827 200.342,80.045 L200.572,79.985 L200.856,79.873 C204.455,78.397 207.757,76.343 210.746,73.721 C213.664,71.163 216.183,68.305 218.299,65.155 C220.418,61.998 222.089,58.611 223.306,55.004 C224.528,51.386 225.231,47.752 225.413,44.111 C225.511,40.422 224.965,36.959 223.768,33.656 C222.578,30.372 220.855,27.429 218.608,24.848 C216.357,22.262 213.631,20.132 210.451,18.47 C207.257,16.802 203.758,15.776 199.981,15.398 L197.258,15.23 z"/>
    </clipPath>
    <filter id="Shadow_8">
      <feGaussianBlur in="SourceAlpha" stdDeviation="3.5"/>
      <feOffset dx="3" dy="2" result="offsetblur"/>
      <feFlood flood-color="#000000"/>
      <feComposite in2="offsetblur" operator="in"/>
    </filter>
    <radialGradient id="Gradient_4" gradientUnits="userSpaceOnUse" cx="217.778" cy="48.123" r="39.861" fx="193.862" fy="48.123">
      <stop offset="0" stop-color="#2B49FF"/>
      <stop offset="1" stop-color="#000A44"/>
    </radialGradient>
    <clipPath id="Clip_9">
      <path d="M215.431,11.812 L289.608,11.812 L289.608,87.095 L215.431,87.095 z M255.395,38.303 L256.622,38.325 C258.267,38.497 259.655,38.99 260.799,39.807 C261.424,40.266 261.872,40.814 262.158,41.467 C262.54,42.34 262.756,43.244 262.81,44.201 C262.874,45.318 262.812,46.391 262.623,47.428 C262.437,48.453 262.201,49.278 261.936,49.862 C261.301,51.341 260.492,52.708 259.463,54.046 C258.442,55.373 257.332,56.502 256.129,57.437 C254.958,58.348 253.675,59.079 252.269,59.634 C250.977,60.145 249.697,60.397 248.404,60.397 C246.497,60.397 245.327,59.973 244.658,59.138 C243.696,57.935 243.123,56.324 242.944,54.242 C242.802,52.53 242.82,50.747 243.001,48.902 C243.171,47.175 243.537,45.585 244.101,44.126 C244.658,42.685 245.368,41.407 246.235,40.283 L246.564,39.905 C247.981,40.197 249.509,40.501 250.838,39.716 L250.838,39.716 L251.273,39.527 C251.645,39.366 252.412,39.026 252.473,38.999 C252.719,38.893 252.843,38.847 252.987,38.808 C253.789,38.637 254.594,38.481 255.395,38.303 z M246.646,21.812 L246.122,21.921 L245.985,21.949 L245.749,21.992 L245.221,22.088 L245.232,22.132 C242.386,22.872 239.565,23.868 237.357,25.892 C234.95,27.914 232.885,30.454 231.179,33.487 C229.789,35.989 228.669,38.772 227.808,41.854 C226.938,44.968 226.48,48.194 226.434,51.523 C226.388,54.88 226.803,58.175 227.677,61.396 C228.602,64.805 230.194,67.889 232.433,70.616 L232.542,70.748 L232.696,70.905 C236.099,74.309 240.082,76.328 244.529,76.89 C248.721,77.42 252.938,76.918 257.131,75.393 C259.429,74.532 261.654,73.363 263.842,71.874 C266.024,70.388 268.04,68.627 269.886,66.597 C271.694,64.608 273.299,62.461 274.699,60.157 C276.389,57.109 277.359,54.809 277.829,52.355 C278.412,49.237 278.677,46.586 278.592,44.027 C278.544,40.759 277.855,37.612 276.534,34.626 C275.175,31.556 273.094,28.867 270.324,26.591 C267.426,24.211 263.629,22.74 258.959,22.156 C256.427,21.765 253.993,21.828 251.771,22.357 C251.105,22.55 250.923,22.595 250.508,22.687 C250.308,22.736 250.424,22.701 250.166,22.806 C249.769,22.557 249.922,22.653 249.709,22.519 C249.529,22.409 249.418,22.351 249.279,22.299 C249.174,22.261 248.314,22.037 247.753,21.871 L247.61,21.85 L246.651,21.853 L246.646,21.812 z"/>
    </clipPath>
    <filter id="Shadow_10">
      <feGaussianBlur in="SourceAlpha" stdDeviation="3.5"/>
      <feOffset dx="3" dy="2" result="offsetblur"/>
      <feFlood flood-color="#000000"/>
      <feComposite in2="offsetblur" operator="in"/>
    </filter>
    <radialGradient id="Gradient_5" gradientUnits="userSpaceOnUse" cx="260.295" cy="60.868" r="34.574">
      <stop offset="0" stop-color="#FE914F"/>
      <stop offset="0.355" stop-color="#ED2713"/>
      <stop offset="1" stop-color="#9E0000"/>
    </radialGradient>
    <clipPath id="Clip_11">
      <path d="M265.844,42.123 L288.829,42.123 L288.829,62.382 L265.844,62.382 z M277.694,52.343 L277.826,52.367 L277.824,52.377 L277.694,52.343 z M277.829,52.356 L277.829,52.355 L276.857,52.123 L276.854,52.134 L276.852,52.144 L276.846,52.17 L276.847,52.17 L276.844,52.185 L277.824,52.382 L277.829,52.356 L277.829,52.356 z"/>
    </clipPath>
    <filter id="Shadow_12">
      <feGaussianBlur in="SourceAlpha" stdDeviation="3.5"/>
      <feOffset dx="3" dy="2" result="offsetblur"/>
      <feFlood flood-color="#000000"/>
      <feComposite in2="offsetblur" operator="in"/>
    </filter>
    <radialGradient id="Gradient_6" gradientUnits="userSpaceOnUse" cx="277.339" cy="52.268" r="0.017">
      <stop offset="0" stop-color="#FE914F"/>
      <stop offset="0.355" stop-color="#ED2713"/>
      <stop offset="1" stop-color="#9E0000"/>
    </radialGradient>
    <clipPath id="Clip_13">
      <path d="M270.326,8.129 L364.525,8.129 L364.525,95.938 L270.326,95.938 z M338.182,18.129 L338.141,18.13 C337.701,18.161 337.299,18.253 336.726,18.434 C335.083,19.031 333.662,20.111 332.469,21.636 C332.404,21.727 332.338,21.82 332.22,21.987 C331.556,22.966 330.825,23.966 330.59,25.151 C327.106,30.237 323.693,35.386 320.815,40.845 C319.145,43.911 317.062,47.742 317.097,47.677 C316.412,48.937 315.712,50.188 315.022,51.445 C314.239,50.46 313.465,49.466 312.661,48.497 C312.787,48.65 310.159,45.504 308.069,42.985 C304.553,38.942 301.018,34.906 297.204,31.138 C296.835,29.335 296.149,27.598 294.848,26.25 C293.186,24.513 291.038,23.597 288.638,23.597 C284.05,23.597 281.449,27.049 281.449,32.504 C281.368,35.376 281.326,38.684 281.326,42.317 C281.326,45.959 281.388,49.643 281.513,53.367 C281.638,57.124 281.867,60.839 282.201,64.513 C282.547,68.315 283.112,71.787 283.899,74.935 C284.343,76.861 285.545,78.601 287.394,80.054 C289.607,81.793 292.173,82.294 294.645,81.411 L294.776,81.362 C296.159,80.809 297.179,79.778 298,78.228 C298.517,76.85 299.08,75.382 298.776,73.879 L298.801,73.875 L298.729,73.381 C298.011,68.515 297.512,63.505 297.232,58.353 C297.179,57.123 297.08,55.003 297.071,54.731 C297.063,54.473 297.058,54.237 297.053,53.757 C297.049,53.313 297.051,53.561 297.046,53.014 L299.505,55.877 C302.484,59.411 305.368,63.211 308.156,67.273 L308.431,67.674 L308.434,67.671 C310.427,70.545 313.259,72.522 316.849,72.567 C320.153,72.567 322.746,70.384 324.947,66.103 C327.166,61.819 327.721,60.747 328.498,59.246 C328.498,59.246 328.498,59.246 328.498,59.246 C329.276,57.744 329.832,56.67 332.056,52.375 L333.814,48.995 C334.409,52.583 335.003,56.171 335.526,59.769 C336.465,66.097 337.261,71.624 337.912,76.351 L337.981,76.846 L338.017,76.841 C338.375,78.708 338.962,80.557 340.103,82.105 C341.803,84.618 343.778,85.938 346.168,85.938 C348.422,85.938 350.387,84.799 351.868,82.742 C353.194,80.9 353.724,78.643 353.458,76.122 C352.473,67.828 351.471,59.562 350.445,51.271 C349.415,42.953 348.201,34.636 346.801,26.32 L346.782,26.209 L346.75,26.068 C346.265,24.005 345.282,22.16 343.833,20.591 C342.374,19.164 341.17,18.407 339.628,18.141 C339.495,18.134 338.95,18.139 338.879,18.139 C338.815,18.138 338.354,18.131 338.182,18.129 z"/>
    </clipPath>
    <filter id="Shadow_14">
      <feGaussianBlur in="SourceAlpha" stdDeviation="3.5"/>
      <feOffset dx="3" dy="2" result="offsetblur"/>
      <feFlood flood-color="#000000"/>
      <feComposite in2="offsetblur" operator="in"/>
    </filter>
    <radialGradient id="Gradient_7" gradientUnits="userSpaceOnUse" cx="342.273" cy="52.21" r="59.974" fx="306.289" fy="52.21">
      <stop offset="0" stop-color="#B02BFF"/>
      <stop offset="1" stop-color="#350044"/>
    </radialGradient>
    <clipPath id="Clip_15">
      <path d="M342.273,6.21 L401.683,6.21 L401.683,91.016 L342.273,91.016 z M367.853,16.21 L368.242,16.613 C367.587,16.768 366.926,16.9 366.273,17.061 C366.042,17.134 365.857,17.223 365.55,17.401 C365.47,17.448 364.672,17.927 364.295,18.148 L364,18.35 L363.702,18.635 C361.852,20.486 361.074,22.747 361.579,25.073 C361.938,26.72 362.776,28.26 364.062,29.674 C366.466,32.304 368.589,35.311 370.439,38.71 C372.5,42.845 373.738,46.053 374.382,49.356 C374.446,49.761 374.854,52.292 374.902,52.643 C374.949,52.979 375.226,55.345 375.31,56.04 C375.517,58.075 375.468,59.933 375.167,61.603 C374.931,62.915 374.464,63.928 373.752,64.711 C373.265,65.248 372.354,65.585 370.926,65.68 L370.783,65.692 L370.764,65.694 C371.292,63.634 371.007,61.892 370.053,60.047 L369.809,59.595 L369.722,59.478 L369.359,59.115 C367.329,57.085 364.689,56.466 362.171,57.515 C361.012,57.998 359.939,58.535 358.953,59.127 L358.673,59.295 L358.353,59.567 C357.557,60.275 356.704,61.084 355.79,61.998 C354.721,63.361 353.444,64.846 353.414,66.683 L353.338,66.677 L353.34,67.215 L353.34,67.381 L353.334,67.408 L353.273,67.952 L353.366,67.954 C353.452,69.6 353.73,71.279 354.656,72.681 C355.475,74.026 356.554,75.225 357.871,76.256 C359.007,77.145 360.238,77.933 361.562,78.62 C362.08,78.857 363.315,79.435 363.509,79.512 C363.977,79.672 364.445,79.833 364.919,79.973 L364.908,80.012 L365.418,80.137 L365.509,80.159 L365.529,80.167 L366.02,80.324 L366.028,80.296 L366.163,80.333 C366.799,80.511 367.088,80.582 367.467,80.634 C369.661,80.939 370.338,81.013 371.109,81.016 C371.416,81.018 371.723,81.007 372.177,80.98 C372.316,80.972 373.306,80.91 373.679,80.888 C376.555,80.58 379.185,79.727 381.558,78.334 C383.97,76.919 385.992,74.979 387.595,72.548 C389.233,70.065 390.204,67.127 390.509,63.777 L390.517,63.67 C391.124,53.875 390.068,45.257 387.337,37.811 C384.591,30.327 380.613,24.102 375.416,19.174 L375.335,19.097 L375.225,19.004 C373.805,17.821 372.372,17.026 370.895,16.623 L369.276,16.401 L367.853,16.21 z"/>
    </clipPath>
    <filter id="Shadow_16">
      <feGaussianBlur in="SourceAlpha" stdDeviation="3.5"/>
      <feOffset dx="3" dy="2" result="offsetblur"/>
      <feFlood flood-color="#000000"/>
      <feComposite in2="offsetblur" operator="in"/>
    </filter>
    <radialGradient id="Gradient_8" gradientUnits="userSpaceOnUse" cx="372.007" cy="43.114" r="31.81">
      <stop offset="0" stop-color="#FFF598"/>
      <stop offset="1" stop-color="#FFB713"/>
    </radialGradient>
    <clipPath id="Clip_17">
      <path d="M380.576,13.288 L454.689,13.288 L454.689,89.052 L380.576,89.052 z M404.554,27.351 L404.557,27.351 L404.569,27.352 L404.554,27.351 z M433.779,23.301 L433.293,23.331 L433.296,23.404 C432.872,23.5 432.447,23.586 432.023,23.682 C431.879,23.723 431.761,23.77 431.572,23.861 C431.51,23.891 431.031,24.127 430.816,24.231 L430.68,24.309 C428.685,25.537 427.372,27.36 426.896,29.58 C426.701,30.843 426.422,32.169 426.674,33.444 L426.659,33.447 L426.746,33.935 C427.219,36.617 427.594,39.339 427.87,42.102 C428.131,44.709 428.15,47.191 427.929,49.549 C427.726,51.716 427.21,53.687 426.38,55.479 C425.671,57.011 424.546,58.285 422.946,59.351 C421.816,60.082 420.379,60.806 418.698,61.486 C417.055,62.15 415.363,62.621 413.616,62.9 C412.094,63.144 410.688,63.102 409.371,62.78 C408.735,62.543 408.025,62.311 407.625,61.719 C407.46,60.929 407.52,61.36 407.477,60.421 C407.478,60.241 407.482,60.09 407.495,59.765 C407.501,59.594 407.504,59.516 407.507,59.422 C407.616,57.723 407.916,55.727 408.405,53.468 C408.922,51.084 409.539,48.576 410.256,45.945 C410.989,43.26 411.722,40.612 412.456,38.003 C412.954,36.344 412.88,34.643 412.208,33.108 C411.772,32.111 411.227,31.217 410.574,30.434 C409.903,29.628 409.166,28.967 408.361,28.454 C408.229,28.378 408.229,28.378 408.113,28.311 C407.122,27.77 407.527,27.957 406.233,27.5 L406.236,27.474 L405.701,27.436 L405.214,27.402 L405.211,27.401 L405.205,27.407 L405.206,27.401 C404.842,27.374 405.058,27.39 404.557,27.351 C404.317,27.337 404.431,27.34 404.215,27.34 C403.891,27.368 404.1,27.349 403.588,27.404 L403.578,27.338 L403.059,27.452 L402.961,27.474 L402.962,27.47 L402.413,27.525 L402.431,27.618 C400.266,28.219 398.589,29.717 397.757,31.803 L397.716,31.912 L397.67,32.054 C396.932,34.433 396.234,36.713 395.576,38.891 C394.903,41.12 394.293,43.329 393.746,45.517 C393.18,47.781 392.724,50.148 392.377,52.617 C392.035,55.056 391.779,57.718 391.609,60.604 C391.397,64.33 392.189,67.592 393.992,70.295 C395.643,72.772 397.815,74.792 400.473,76.325 C402.848,77.668 405.501,78.508 408.44,78.857 C411.248,79.19 414.099,79.096 416.982,78.576 C419.754,78.076 422.518,77.261 425.271,76.132 C428.118,74.966 430.718,73.443 433.061,71.568 C435.44,69.739 437.51,67.618 439.206,65.262 C441.011,62.754 442.223,59.976 442.826,56.963 C443.279,54.608 443.548,52.195 443.637,49.697 C443.723,47.285 443.701,44.933 443.572,42.643 C443.441,40.336 443.201,38.112 442.851,35.968 C442.512,33.89 442.171,32.081 441.827,30.532 L441.78,30.342 C441.159,28.109 440.07,26.292 438.523,24.947 C436.906,23.734 435.478,23.195 433.779,23.301 z"/>
    </clipPath>
    <filter id="Shadow_18">
      <feGaussianBlur in="SourceAlpha" stdDeviation="3.5"/>
      <feOffset dx="3" dy="2" result="offsetblur"/>
      <feFlood flood-color="#000000"/>
      <feComposite in2="offsetblur" operator="in"/>
    </filter>
    <radialGradient id="Gradient_9" gradientUnits="userSpaceOnUse" cx="414.435" cy="51.468" r="28.309">
      <stop offset="0" stop-color="#B3FF4B"/>
      <stop offset="0.523" stop-color="#68A02C"/>
      <stop offset="1" stop-color="#3C6320"/>
    </radialGradient>
    <clipPath id="Clip_19">
      <path d="M434.575,9.804 L511.433,9.804 L511.433,90.173 L434.575,90.173 z M493.284,19.805 L493.29,19.806 C490.981,19.84 489.599,20.228 487.695,21.608 C485.612,23.275 484.497,24.979 484.586,27.047 C483.801,34.926 483.258,40.36 482.702,45.839 C482.571,47.017 482.287,49.633 482.241,50 C482.123,50.862 481.994,51.723 481.869,52.584 C478.759,48.351 480.487,50.627 476.646,45.786 C474.47,43.142 472.086,40.545 469.492,37.993 C467.135,35.778 464.769,33.554 462.128,31.676 C461.963,31.162 461.809,30.645 461.64,30.133 C461.584,29.989 461.523,29.872 461.406,29.671 C461.396,29.654 461.081,29.123 460.931,28.865 C459.645,26.985 457.589,25.986 454.757,25.702 C452.641,25.467 450.7,26.399 449.063,28.295 C447.686,29.889 446.928,32.053 446.693,34.87 C446.527,36.697 446.36,39.196 446.194,42.352 C446.029,45.482 445.885,48.733 445.762,52.107 C445.638,55.508 445.575,58.767 445.575,61.882 C445.578,62.124 445.578,62.124 445.58,62.361 C445.589,63.205 445.593,63.578 445.602,64.047 C445.641,66.207 445.74,67.797 445.967,69.355 L445.973,69.354 L445.967,69.363 L445.971,69.386 L445.986,69.514 L446.046,70.016 L446.091,70.01 C446.505,72.066 447.078,74.127 448.261,75.888 C449.954,78.64 452.483,80.173 455.463,80.173 C459.015,80.173 461.426,78.351 461.426,75.068 L461.424,74.953 C461.263,69.712 461.263,64.5 461.424,59.307 C461.534,56.135 461.581,54.708 461.624,53.343 C461.641,52.808 461.631,53.074 461.652,52.546 C465.173,56.673 463.393,54.536 466.982,58.963 C468.78,61.24 470.456,63.475 472.011,65.668 C473.62,67.937 475.128,70.023 476.534,71.926 C478.027,73.88 479.869,75.358 482.061,76.37 C484.436,77.466 486.391,77.86 488.194,77.532 L488.367,77.497 C490.253,77.062 491.801,76.186 492.943,74.881 C494.013,73.658 494.723,72.007 495.196,69.759 C496.534,63.237 497.596,56.304 498.387,48.938 C499.167,41.668 499.845,34.541 500.42,27.557 L500.432,27.414 L500.433,27.229 C500.06,22.784 497.821,20.287 493.29,19.806 L493.294,19.805 L493.284,19.805 z"/>
    </clipPath>
    <filter id="Shadow_20">
      <feGaussianBlur in="SourceAlpha" stdDeviation="3.5"/>
      <feOffset dx="3" dy="2" result="offsetblur"/>
      <feFlood flood-color="#000000"/>
      <feComposite in2="offsetblur" operator="in"/>
    </filter>
    <radialGradient id="Gradient_10" gradientUnits="userSpaceOnUse" cx="481.187" cy="62.453" r="37.856">
      <stop offset="0" stop-color="#FE914F"/>
      <stop offset="0.355" stop-color="#ED2713"/>
      <stop offset="1" stop-color="#9E0000"/>
    </radialGradient>
    <clipPath id="Clip_21">
      <path d="M488.983,7.218 L570.257,7.218 L570.257,92.03 L488.983,92.03 z M507.841,17.218 L507.658,17.218 L507.422,17.24 C504.508,17.547 502.239,19.041 501.05,21.503 C500.111,23.449 499.78,25.309 500.103,27.086 C500.842,30.943 501.574,34.949 502.306,39.141 C503.037,43.325 503.728,47.548 504.378,51.813 C505.027,56.074 505.615,60.274 506.143,64.412 C506.674,68.577 507.185,72.548 507.677,76.322 L507.734,76.759 L507.766,76.88 L507.93,77.29 C508.473,78.649 509.483,79.657 511.051,80.528 C512.172,81.151 513.404,81.584 514.731,81.825 C516.081,82.071 517.356,82.097 518.557,81.897 C521.283,81.443 523.004,79.243 523.004,76.418 L523.004,76.281 L522.992,76.106 C522.662,71.906 522.313,67.915 521.942,64.13 L521.58,60.589 C523.299,61.43 525.013,62.281 526.732,63.122 C527.16,63.326 527.537,63.496 528.247,63.807 C528.383,63.867 530.436,64.763 531.43,65.198 C536.796,67.455 542.688,69.343 549.116,70.865 L549.31,70.906 C550.644,71.148 551.955,71.178 553.241,70.994 C555.145,70.722 556.769,69.777 557.899,68.269 C558.888,66.887 559.337,65.337 559.245,63.684 C559.177,62.46 558.878,61.25 558.355,60.074 C557.829,58.891 557.121,57.849 556.24,56.968 C555.355,56.23 554.427,55.355 553.257,55.115 L553.263,55.09 L552.773,54.978 C547.989,53.88 543.468,52.471 539.208,50.752 C538.376,50.401 536.572,49.644 536.734,49.712 C536.176,49.477 535.898,49.357 535.593,49.217 C534.434,48.672 533.284,48.109 532.128,47.561 C532.473,47.344 532.818,47.127 533.165,46.913 C533.298,46.831 534.593,46.041 535.489,45.493 C537.232,44.44 538.896,43.445 540.478,42.512 C542.064,41.577 543.348,40.822 544.326,40.252 L544.757,40.001 L544.738,39.969 C545.94,39.215 546.778,38.026 547.328,36.735 C548.113,34.931 548.315,33.317 547.874,31.773 L547.826,31.617 C547.415,30.384 546.678,29.33 545.668,28.521 C544.907,27.913 544.029,27.433 543.042,27.081 C542.138,26.758 541.239,26.56 540.348,26.492 C539.385,26.418 538.555,26.468 537.783,26.66 L537.539,26.721 L537.238,26.839 C533.463,28.384 529.434,30.408 525.143,32.914 C523.701,33.772 522.602,34.424 521.692,34.961 C521.252,35.221 520.339,35.759 520.231,35.823 C519.61,36.191 518.996,36.57 518.383,36.951 L517.799,33.268 C517.312,30.304 516.866,27.443 516.46,24.684 L516.435,24.513 L516.383,24.297 C516.214,23.621 515.932,22.935 515.523,22.186 C515.091,21.392 514.516,20.641 513.798,19.923 C513.074,19.199 512.27,18.598 511.394,18.126 C510.282,17.527 509.079,17.219 507.841,17.218 z"/>
    </clipPath>
    <filter id="Shadow_22">
      <feGaussianBlur in="SourceAlpha" stdDeviation="3.5"/>
      <feOffset dx="3" dy="2" result="offsetblur"/>
      <feFlood flood-color="#000000"/>
      <feComposite in2="offsetblur" operator="in"/>
    </filter>
    <radialGradient id="Gradient_11" gradientUnits="userSpaceOnUse" cx="549.957" cy="49.793" r="49.087" fx="520.505" fy="49.793">
      <stop offset="0" stop-color="#2B49FF"/>
      <stop offset="1" stop-color="#000A44"/>
    </radialGradient>
  </defs>
  <g id="Layer_1">
    <g>
      <g>
        <path d="M40.977,9 C45.936,9 50.215,10.502 53.65,13.469 C56.946,16.315 59.216,19.918 60.407,24.188 C62.397,31.295 61.868,37.859 58.811,43.682 C56.67,47.876 53.443,51.337 49.831,54.306 C51.05,55.069 52.27,55.829 53.489,56.592 C53.79,56.781 54.054,56.948 54.556,57.266 C54.619,57.307 56.087,58.238 56.804,58.693 C60.603,61.114 64.42,63.742 68.256,66.577 L68.522,66.781 L68.706,66.965 C69.408,67.667 70.118,68.58 70.884,69.756 C72.32,71.956 72.265,74.618 70.904,77.748 C69.844,80.222 67.761,81.78 65.124,82.053 C62.949,82.278 60.823,81.665 58.892,80.286 L58.773,80.2 L58.684,80.127 C56.957,78.715 55.006,77.236 52.831,75.694 C50.627,74.131 48.32,72.567 45.912,71.001 C43.485,69.424 41.058,67.887 38.634,66.392 L37.884,65.933 L37.923,68.455 C37.964,71.633 38.064,74.748 38.225,77.815 L38.23,78.012 C38.23,80.465 37.319,82.461 35.515,83.701 C34.177,84.621 32.579,85.079 30.796,85.079 L30.424,85.072 L30.138,85.025 C28.74,84.792 27.495,84.081 26.487,82.973 C25.898,82.325 25.354,81.583 24.851,80.745 C24.374,79.95 23.972,79.146 23.636,78.302 C23.495,77.869 23.224,77.097 23.193,76.977 C23.162,76.856 23.144,76.749 23.121,76.552 C23.106,76.417 23.117,76.516 23.087,76.256 L23.047,76.259 L23.006,75.76 C22.756,72.667 22.568,69.169 22.443,65.26 C22.319,61.374 22.257,57.385 22.257,53.296 C22.257,49.234 22.278,45.234 22.319,41.292 C22.323,40.978 22.355,38.658 22.362,38.334 C22.383,37.593 22.371,37.992 22.396,37.139 C21.517,38.545 20.029,39.242 18.616,39.917 L18.358,40.012 L18.15,40.064 C16.007,40.6 14.005,39.865 12.087,38.034 C10.404,36.427 9.5,34.549 9.5,32.504 C9.5,28.361 10.704,24.668 13.079,21.553 C15.236,18.726 17.937,16.356 21.162,14.459 C24.267,12.633 27.6,11.263 31.152,10.352 C34.663,9.452 37.935,9 40.977,9 L40.977,9 z M39.228,25.461 C37.683,25.392 36.141,25.63 34.652,26.03 C35.729,27.057 35.251,26.516 36.098,27.638 C36.968,29.043 37.491,30.788 37.718,32.944 L37.745,33.249 L37.738,33.487 C37.657,36.085 37.596,38.681 37.555,41.27 L37.546,43.556 C38.571,43.122 38.167,43.302 38.764,43.032 C38.931,42.941 40.243,41.991 40.343,41.922 C42.328,40.294 43.702,38.502 44.522,36.485 C44.798,35.823 45.021,34.948 45.177,33.884 C45.331,32.838 45.346,31.776 45.221,30.688 C45.109,29.704 44.846,28.79 44.43,27.929 C44.157,27.366 43.775,26.949 43.235,26.625 C42.009,25.9 40.693,25.517 39.229,25.461 z" clip-path="url(#Clip_1)" filter="url(#Shadow_2)" fill="rgba(0,0,0,0.789)"/>
        <path d="M40.977,9.5 C45.799,9.5 49.967,10.949 53.323,13.847 C56.547,16.631 58.761,20.15 59.926,24.323 C61.875,31.285 61.375,37.723 58.366,43.453 C56.132,47.803 52.786,51.361 48.977,54.361 C54.637,57.903 52.12,56.314 56.535,59.115 C60.325,61.53 64.133,64.152 67.958,66.979 L68.168,67.135 L68.353,67.319 C69.039,68.005 69.731,68.902 70.466,70.029 C71.861,72.168 71.676,74.719 70.444,77.551 C69.46,79.848 67.54,81.3 65.073,81.555 C62.997,81.77 60.993,81.172 59.182,79.879 L59.089,79.813 L59,79.74 C57.267,78.321 55.306,76.836 53.12,75.286 C50.911,73.719 48.599,72.151 46.184,70.582 C43.754,69.002 41.324,67.463 38.895,65.965 L37.369,65.033 L37.424,68.462 C37.464,71.646 37.565,74.768 37.726,77.829 L37.73,78.013 C37.73,80.213 36.955,82.104 35.232,83.289 C33.958,84.164 32.45,84.579 30.796,84.579 L30.506,84.579 L30.22,84.532 C28.908,84.313 27.769,83.64 26.857,82.636 C26.286,82.008 25.762,81.292 25.28,80.488 C24.818,79.718 24.428,78.937 24.112,78.147 C23.546,76.418 23.713,77.234 23.528,75.718 L23.505,75.719 C23.254,72.633 23.067,69.142 22.943,65.244 C22.819,61.363 22.757,57.38 22.757,53.296 C22.757,49.236 22.778,45.237 22.819,41.299 C22.877,37.36 22.834,39.359 22.95,35.302 L22.623,35.979 C21.645,37.587 20.215,38.767 18.436,39.45 L18.237,39.527 L18.029,39.579 C15.952,40.098 14.11,39.274 12.433,37.673 C10.892,36.202 10,34.459 10,32.504 C10,28.481 11.162,24.891 13.477,21.856 C15.597,19.077 18.251,16.752 21.416,14.89 C24.481,13.087 27.77,11.735 31.276,10.836 C34.736,9.949 37.969,9.5 40.977,9.5 z M39.248,24.961 C37.528,24.895 35.734,25.147 33.853,25.728 L33.51,25.85 C34.454,26.258 35.094,27.089 35.673,27.902 C36.518,29.267 37.006,30.961 37.221,32.996 L37.246,33.233 L37.238,33.472 C37.157,36.07 37.096,38.669 37.055,41.268 L37.043,44.314 C39.654,43.183 38.456,43.864 40.66,42.309 C42.716,40.623 44.137,38.762 44.984,36.678 C45.272,35.986 45.507,35.077 45.672,33.957 C45.832,32.869 45.848,31.763 45.718,30.632 C45.599,29.59 45.32,28.622 44.88,27.711 C44.564,27.059 44.115,26.569 43.49,26.194 C42.193,25.428 40.796,25.021 39.248,24.961 z" fill="url(#Gradient_1)"/>
        <path d="M40.977,9.5 C45.799,9.5 49.967,10.949 53.323,13.847 C56.547,16.631 58.761,20.15 59.926,24.323 C61.875,31.285 61.375,37.723 58.366,43.453 C56.132,47.803 52.786,51.361 48.977,54.361 C54.637,57.903 52.12,56.314 56.535,59.115 C60.325,61.53 64.133,64.152 67.958,66.979 L68.168,67.135 L68.353,67.319 C69.039,68.005 69.731,68.902 70.466,70.029 C71.861,72.168 71.676,74.719 70.444,77.551 C69.46,79.848 67.54,81.3 65.073,81.555 C62.997,81.77 60.993,81.172 59.182,79.879 L59.089,79.813 L59,79.74 C57.267,78.321 55.306,76.836 53.12,75.286 C50.911,73.719 48.599,72.151 46.184,70.582 C43.754,69.002 41.324,67.463 38.895,65.965 L37.369,65.033 L37.424,68.462 C37.464,71.646 37.565,74.768 37.726,77.829 L37.73,78.013 C37.73,80.213 36.955,82.104 35.232,83.289 C33.958,84.164 32.45,84.579 30.796,84.579 L30.506,84.579 L30.22,84.532 C28.908,84.313 27.769,83.64 26.857,82.636 C26.286,82.008 25.762,81.292 25.28,80.488 C24.818,79.718 24.428,78.937 24.112,78.147 C23.546,76.418 23.713,77.234 23.528,75.718 L23.505,75.719 C23.254,72.633 23.067,69.142 22.943,65.244 C22.819,61.363 22.757,57.38 22.757,53.296 C22.757,49.236 22.778,45.237 22.819,41.299 C22.877,37.36 22.834,39.359 22.95,35.302 L22.623,35.979 C21.645,37.587 20.215,38.767 18.436,39.45 L18.237,39.527 L18.029,39.579 C15.952,40.098 14.11,39.274 12.433,37.673 C10.892,36.202 10,34.459 10,32.504 C10,28.481 11.162,24.891 13.477,21.856 C15.597,19.077 18.251,16.752 21.416,14.89 C24.481,13.087 27.77,11.735 31.276,10.836 C34.736,9.949 37.969,9.5 40.977,9.5 z M39.248,24.961 C37.528,24.895 35.734,25.147 33.853,25.728 L33.51,25.85 C34.454,26.258 35.094,27.089 35.673,27.902 C36.518,29.267 37.006,30.961 37.221,32.996 L37.246,33.233 L37.238,33.472 C37.157,36.07 37.096,38.669 37.055,41.268 L37.043,44.314 C39.654,43.183 38.456,43.864 40.66,42.309 C42.716,40.623 44.137,38.762 44.984,36.678 C45.272,35.986 45.507,35.077 45.672,33.957 C45.832,32.869 45.848,31.763 45.718,30.632 C45.599,29.59 45.32,28.622 44.88,27.711 C44.564,27.059 44.115,26.569 43.49,26.194 C42.193,25.428 40.796,25.021 39.248,24.961 z" fill-opacity="0" stroke="#000000" stroke-width="1"/>
      </g>
      <g>
        <path d="M97.702,11.085 L98.507,11.085 C99.132,11.085 99.763,11.179 100.403,11.362 C101.558,11.692 102.493,12.377 103.348,13.445 C103.811,14.024 104.299,14.764 104.851,15.718 C105.38,16.631 105.987,17.864 106.701,19.471 L106.833,19.783 L106.903,20.037 C108.026,24.128 109.33,28.342 110.815,32.676 C111.622,34.985 112.766,38.273 112.88,38.597 C113.027,39.013 113.158,39.377 113.408,40.065 C113.744,40.987 114.079,41.909 114.414,42.832 C114.629,42.825 114.844,42.82 115.058,42.841 C114.823,42.818 115.926,42.943 116.737,43.018 C119.275,43.381 121.24,44.868 122.215,47.21 C123.211,49.699 122.973,52.2 121.466,54.269 C121.475,54.259 120.664,55.227 120.524,55.358 C120.096,55.708 120.391,55.47 119.629,56.057 C119.836,56.558 120.039,57.06 120.25,57.56 C120.307,57.695 120.627,58.452 120.646,58.496 C120.9,59.096 121.188,59.78 121.568,60.682 C122.607,63.119 123.685,65.495 124.802,67.81 L124.995,68.209 L125.035,68.329 L125.122,68.764 C125.207,69.186 125.331,69.828 125.497,70.701 C125.696,71.744 125.821,72.789 125.87,73.836 C125.928,75.047 125.837,76.198 125.595,77.286 C125.173,79.187 124.116,80.659 122.485,81.474 L122.285,81.566 C120.584,82.296 118.724,82.19 117.049,81.297 C116.127,80.805 115.254,80.175 114.43,79.41 C113.673,78.707 112.993,77.945 112.393,77.127 C111.814,76.338 111.352,75.601 111.02,74.938 C109.604,72.189 108.251,69.419 106.957,66.623 C106.233,65.013 105.32,63.002 105.355,63.081 C105.068,62.446 104.804,61.802 104.532,61.161 C102.998,61.394 101.465,61.638 99.931,61.872 C99.579,61.925 99.278,61.966 98.729,62.036 C98.541,62.061 96.959,62.263 96.219,62.358 C94.029,62.581 90.99,62.906 90.711,62.932 C90.318,62.968 89.977,62.993 89.343,63.033 C88.511,63.083 87.679,63.134 86.848,63.185 C86.697,63.705 86.547,64.225 86.396,64.745 C86.247,65.261 86.211,65.387 86.132,65.66 C86.098,65.779 85.475,67.942 84.994,69.612 C84.151,72.544 83.368,75.496 82.642,78.479 L82.595,78.65 C82.094,80.357 81.43,81.909 80.607,83.299 C79.704,84.926 78.272,86.144 76.559,86.84 L76.582,86.933 L76.07,87.039 L76.033,87.045 L75.976,87.061 L75.467,87.208 L75.456,87.16 C72.828,87.813 70.52,86.798 68.561,85.119 C66.946,83.343 66.27,81.048 66.574,78.465 C67.252,73.382 68.35,68.038 69.868,62.432 C71.368,56.888 73.118,51.345 75.118,45.804 C77.118,40.264 79.305,34.889 81.681,29.679 C84.076,24.427 86.531,19.667 89.104,15.296 C90.072,13.748 91.391,12.726 93.04,12.347 C93.359,12.295 93.795,12.211 93.832,12.206 C93.92,12.195 93.993,12.194 94.1,12.199 C94.293,12.211 94.213,12.206 94.342,12.214 L95.214,11.776 C97.129,11.168 96.275,11.319 97.742,11.165 L97.702,11.085 z M95.621,37.766 C95.086,39.146 94.542,40.523 93.997,41.899 C93.794,42.411 93.62,42.847 93.439,43.296 C93.407,43.374 93.148,44.018 93.09,44.164 C92.731,45.041 92.431,45.941 92.122,46.837 C93.187,46.71 94.253,46.592 95.319,46.476 C95.708,46.435 96.041,46.401 96.351,46.37 C96.549,46.351 96.718,46.335 96.979,46.31 C97.474,46.272 97.964,46.184 98.453,46.097 C98.093,45.15 97.724,44.206 97.409,43.243 C97.363,43.1 96.956,41.836 96.757,41.22 C96.381,40.068 96.004,38.916 95.621,37.766 z" clip-path="url(#Clip_3)" filter="url(#Shadow_4)" fill="rgba(0,0,0,0.789)"/>
        <path d="M98.507,11.585 C99.095,11.585 99.681,11.675 100.266,11.843 C101.376,12.16 102.218,12.833 102.957,13.757 C103.411,14.325 103.889,15.054 104.419,15.969 C104.942,16.872 105.544,18.099 106.244,19.674 L106.351,19.915 L106.421,20.169 C107.546,24.269 108.854,28.493 110.343,32.841 C113.103,40.735 111.85,37.24 114.067,43.34 C115.323,43.31 114.455,43.308 116.666,43.513 C119.002,43.847 120.836,45.198 121.751,47.396 C122.668,49.687 122.489,52.016 121.087,53.944 C119.885,55.346 120.566,54.688 119.021,55.893 C120.042,58.376 119.354,56.711 121.108,60.878 C122.15,63.322 123.231,65.705 124.352,68.027 L124.545,68.427 L124.632,68.862 C124.717,69.284 124.841,69.927 125.006,70.795 C125.201,71.814 125.322,72.836 125.371,73.859 C125.426,75.019 125.341,76.127 125.107,77.177 C124.732,78.866 123.806,80.255 122.275,81.02 L122.088,81.107 C120.507,81.785 118.806,81.667 117.284,80.855 C116.396,80.382 115.558,79.775 114.771,79.044 C114.037,78.363 113.378,77.625 112.797,76.832 C112.238,76.07 111.788,75.355 111.465,74.709 C110.052,71.966 108.701,69.203 107.413,66.418 C105.287,61.691 106.126,63.636 104.84,60.607 C98.195,61.624 101.089,61.227 96.168,61.861 C88.829,62.608 92.066,62.36 86.465,62.707 C85.381,66.46 86.032,64.204 84.513,69.474 C83.668,72.412 82.883,75.37 82.159,78.349 L82.116,78.509 C81.627,80.171 80.982,81.685 80.174,83.048 C79.21,84.709 77.827,86.008 75.967,86.544 L75.969,86.549 L75.894,86.565 L75.837,86.581 L75.836,86.577 C73.136,87.253 70.932,86.686 68.931,84.783 C67.402,83.102 66.786,80.944 67.07,78.531 C67.745,73.467 68.839,68.144 70.35,62.562 C71.847,57.031 73.594,51.502 75.588,45.974 C77.583,40.447 79.766,35.085 82.136,29.886 C84.515,24.669 86.963,19.921 89.529,15.561 C90.392,14.18 91.584,13.195 93.12,12.84 C94.156,12.673 93.712,12.678 94.445,12.722 L95.411,12.236 C96.41,11.808 97.45,11.585 98.507,11.585 L98.507,11.585 z M95.658,36.292 C91.67,46.56 92.982,42.808 91.39,47.427 C98.895,46.534 96.333,46.984 99.135,46.484 C97.422,41.972 98.672,45.336 95.658,36.293 z" fill="url(#Gradient_2)"/>
        <path d="M98.507,11.585 C99.095,11.585 99.681,11.675 100.266,11.843 C101.376,12.16 102.218,12.833 102.957,13.757 C103.411,14.325 103.889,15.054 104.419,15.969 C104.942,16.872 105.544,18.099 106.244,19.674 L106.351,19.915 L106.421,20.169 C107.546,24.269 108.854,28.493 110.343,32.841 C113.103,40.735 111.85,37.24 114.067,43.34 C115.323,43.31 114.455,43.308 116.666,43.513 C119.002,43.847 120.836,45.198 121.751,47.396 C122.668,49.687 122.489,52.016 121.087,53.944 C119.885,55.346 120.566,54.688 119.021,55.893 C120.042,58.376 119.354,56.711 121.108,60.878 C122.15,63.322 123.231,65.705 124.352,68.027 L124.545,68.427 L124.632,68.862 C124.717,69.284 124.841,69.927 125.006,70.795 C125.201,71.814 125.322,72.836 125.371,73.859 C125.426,75.019 125.341,76.127 125.107,77.177 C124.732,78.866 123.806,80.255 122.275,81.02 L122.088,81.107 C120.507,81.785 118.806,81.667 117.284,80.855 C116.396,80.382 115.558,79.775 114.771,79.044 C114.037,78.363 113.378,77.625 112.797,76.832 C112.238,76.07 111.788,75.355 111.465,74.709 C110.052,71.966 108.701,69.203 107.413,66.418 C105.287,61.691 106.126,63.636 104.84,60.607 C98.195,61.624 101.089,61.227 96.168,61.861 C88.829,62.608 92.066,62.36 86.465,62.707 C85.381,66.46 86.032,64.204 84.513,69.474 C83.668,72.412 82.883,75.37 82.159,78.349 L82.116,78.509 C81.627,80.171 80.982,81.685 80.174,83.048 C79.21,84.709 77.827,86.008 75.967,86.544 L75.969,86.549 L75.894,86.565 L75.837,86.581 L75.836,86.577 C73.136,87.253 70.932,86.686 68.931,84.783 C67.402,83.102 66.786,80.944 67.07,78.531 C67.745,73.467 68.839,68.144 70.35,62.562 C71.847,57.031 73.594,51.502 75.588,45.974 C77.583,40.447 79.766,35.085 82.136,29.886 C84.515,24.669 86.963,19.921 89.529,15.561 C90.392,14.18 91.584,13.195 93.12,12.84 C94.156,12.673 93.712,12.678 94.445,12.722 L95.411,12.236 C96.41,11.808 97.45,11.585 98.507,11.585 L98.507,11.585 z M95.658,36.292 C91.67,46.56 92.982,42.808 91.39,47.427 C98.895,46.534 96.333,46.984 99.135,46.484 C97.422,41.972 98.672,45.336 95.658,36.293 z" fill-opacity="0" stroke="#000000" stroke-width="1"/>
      </g>
      <g>
        <path d="M173.74,19.805 L173.75,19.805 L173.747,19.806 C178.278,20.287 180.517,22.784 180.89,27.229 L180.888,27.413 L180.877,27.557 C180.302,34.542 179.624,41.669 178.843,48.938 C178.053,56.304 176.991,63.237 175.652,69.759 C175.179,72.007 174.47,73.658 173.399,74.881 C172.258,76.186 170.709,77.062 168.823,77.497 L168.651,77.532 C166.847,77.86 164.893,77.466 162.518,76.37 C160.326,75.358 158.484,73.88 156.991,71.926 C155.585,70.023 154.077,67.937 152.467,65.668 C150.913,63.475 149.237,61.24 147.439,58.963 C143.85,54.536 145.63,56.673 142.109,52.546 C142.088,53.074 142.098,52.808 142.081,53.343 C142.038,54.708 141.991,56.135 141.881,59.307 C141.72,64.5 141.72,69.713 141.881,74.953 L141.883,75.068 C141.883,78.351 139.471,80.173 135.92,80.173 C132.94,80.173 130.411,78.64 128.718,75.888 C127.535,74.128 126.962,72.066 126.547,70.01 L126.502,70.016 L126.442,69.514 L126.427,69.386 L126.424,69.364 L126.431,69.354 L126.424,69.355 C126.196,67.798 126.098,66.209 126.059,64.049 C126.05,63.581 126.046,63.208 126.037,62.366 C126.035,62.126 126.035,62.126 126.032,61.882 C126.032,58.766 126.094,55.508 126.219,52.107 C126.342,48.733 126.486,45.482 126.651,42.352 C126.817,39.197 126.984,36.697 127.15,34.87 C127.385,32.053 128.143,29.888 129.519,28.295 C131.157,26.399 133.098,25.467 135.214,25.702 C138.046,25.986 140.102,26.985 141.387,28.865 C141.537,29.123 141.853,29.654 141.863,29.671 C141.98,29.872 142.04,29.989 142.096,30.133 C142.266,30.645 142.42,31.162 142.585,31.676 C145.226,33.553 147.592,35.779 149.949,37.993 C152.543,40.545 154.927,43.142 157.102,45.786 C160.943,50.627 159.216,48.351 162.326,52.584 C162.451,51.723 162.58,50.862 162.697,50 C162.743,49.633 163.027,47.017 163.159,45.839 C163.715,40.36 164.258,34.926 165.043,27.047 C164.954,24.979 166.069,23.274 168.152,21.608 C170.055,20.228 171.438,19.84 173.747,19.806 L173.74,19.805 z" clip-path="url(#Clip_5)" filter="url(#Shadow_6)" fill="rgba(0,0,0,0.789)"/>
        <path d="M173.705,20.303 C177.774,20.594 180.39,23.21 180.39,27.229 L180.39,27.373 L180.378,27.516 C179.804,34.497 179.126,41.619 178.346,48.885 C177.558,56.23 176.498,63.148 175.163,69.656 C174.724,71.744 174.065,73.362 173.023,74.552 C171.934,75.797 170.464,76.605 168.723,77.007 L168.562,77.04 C166.805,77.36 164.916,76.926 162.728,75.916 C160.617,74.942 158.837,73.518 157.393,71.629 C155.989,69.729 154.483,67.646 152.875,65.379 C151.316,63.18 149.635,60.938 147.831,58.654 C146.028,56.37 144.144,54.105 142.179,51.859 L141.659,51.299 C141.546,54.003 141.657,51.339 141.381,59.292 C141.22,64.494 141.22,69.717 141.381,74.961 L141.383,75.068 C141.383,78.279 138.905,79.673 135.92,79.673 C133.076,79.673 130.723,78.192 129.137,75.615 C127.923,73.755 127.296,71.624 126.945,69.454 L126.939,69.454 L126.921,69.306 L126.917,69.284 L126.918,69.283 C126.561,66.834 126.559,64.351 126.532,61.882 C126.532,58.772 126.594,55.52 126.718,52.125 C126.842,48.754 126.986,45.505 127.15,42.378 C127.316,39.23 127.482,36.736 127.648,34.912 C127.868,32.277 128.56,30.171 129.898,28.621 C131.356,26.933 133.131,25.974 135.164,26.2 C137.726,26.456 139.73,27.325 140.955,29.117 C141.879,30.704 141.432,29.771 142.157,31.98 C144.821,33.881 147.226,36.106 149.598,38.35 C152.179,40.888 154.552,43.473 156.716,46.104 C158.856,48.705 160.83,51.289 162.639,53.855 L162.644,53.862 C163.381,48.796 163.036,51.452 163.656,45.889 C164.295,39.602 164.92,33.314 165.543,27.025 C165.45,24.882 166.891,23.257 168.447,22.011 C170.143,20.772 171.924,20.141 173.705,20.303 z" fill="url(#Gradient_3)"/>
        <path d="M173.705,20.303 C177.774,20.594 180.39,23.21 180.39,27.229 L180.39,27.373 L180.378,27.516 C179.804,34.497 179.126,41.619 178.346,48.885 C177.558,56.23 176.498,63.148 175.163,69.656 C174.724,71.744 174.065,73.362 173.023,74.552 C171.934,75.797 170.464,76.605 168.723,77.007 L168.562,77.04 C166.805,77.36 164.916,76.926 162.728,75.916 C160.617,74.942 158.837,73.518 157.393,71.629 C155.989,69.729 154.483,67.646 152.875,65.379 C151.316,63.18 149.635,60.938 147.831,58.654 C146.028,56.37 144.144,54.105 142.179,51.859 L141.659,51.299 C141.546,54.003 141.657,51.339 141.381,59.292 C141.22,64.494 141.22,69.717 141.381,74.961 L141.383,75.068 C141.383,78.279 138.905,79.673 135.92,79.673 C133.076,79.673 130.723,78.192 129.137,75.615 C127.923,73.755 127.296,71.624 126.945,69.454 L126.939,69.454 L126.921,69.306 L126.917,69.284 L126.918,69.283 C126.561,66.834 126.559,64.351 126.532,61.882 C126.532,58.772 126.594,55.52 126.718,52.125 C126.842,48.754 126.986,45.505 127.15,42.378 C127.316,39.23 127.482,36.736 127.648,34.912 C127.868,32.277 128.56,30.171 129.898,28.621 C131.356,26.933 133.131,25.974 135.164,26.2 C137.726,26.456 139.73,27.325 140.955,29.117 C141.879,30.704 141.432,29.771 142.157,31.98 C144.821,33.881 147.226,36.106 149.598,38.35 C152.179,40.888 154.552,43.473 156.716,46.104 C158.856,48.705 160.83,51.289 162.639,53.855 L162.644,53.862 C163.381,48.796 163.036,51.452 163.656,45.889 C164.295,39.602 164.92,33.314 165.543,27.025 C165.45,24.882 166.891,23.257 168.447,22.011 C170.143,20.772 171.924,20.141 173.705,20.303 z" fill-opacity="0" stroke="#000000" stroke-width="1"/>
      </g>
      <g>
        <path d="M197.258,15.23 L199.981,15.398 C203.758,15.776 207.257,16.802 210.451,18.47 C213.631,20.132 216.357,22.262 218.608,24.848 C220.855,27.429 222.578,30.372 223.768,33.656 C224.965,36.959 225.511,40.422 225.413,44.111 C225.231,47.752 224.528,51.386 223.306,55.004 C222.089,58.611 220.418,61.998 218.299,65.155 C216.183,68.305 213.664,71.163 210.746,73.721 C207.757,76.343 204.455,78.397 200.856,79.873 L200.572,79.985 L200.342,80.045 C197.326,80.827 194.949,80.894 192.963,80.185 C191.035,79.496 189.649,78.568 188.723,77.271 L188.478,76.928 L188.421,76.823 L188.264,76.431 C187.868,75.44 187.725,74.341 187.808,72.998 C187.864,72.679 187.973,71.996 187.968,72.029 C188.011,71.775 188.047,71.633 188.114,71.474 C188.372,70.984 188.66,70.511 188.932,70.03 C187.98,62.807 187.619,55.525 187.305,48.253 C187.173,43.191 187.048,38.128 187.019,33.063 L186.875,33.108 C186.62,33.185 186.43,33.234 186.24,33.27 C185.659,33.379 185.156,33.364 183.56,33.214 C183.22,33.182 182.979,33.104 182.468,32.896 C182.247,32.806 182.15,32.769 181.995,32.716 C180.685,32.182 179.621,31.224 178.726,30.149 L178.641,30.209 L178.37,29.726 L178.368,29.712 L178.305,29.628 L177.981,29.193 L178.034,29.159 C176.92,27.541 177.066,25.684 177.324,23.846 C177.864,21.868 179.226,20.271 181.301,19.086 C183.516,17.833 186.22,16.825 189.462,16.039 C190.016,15.931 191.37,15.66 191.579,15.621 C192.053,15.53 192.327,15.49 192.659,15.463 C192.791,15.452 195.28,15.347 197.197,15.23 L197.258,15.23 z M202.848,32.413 C202.841,37.688 202.93,42.962 203.03,48.236 C203.066,49.328 203.135,51.571 203.136,51.587 C203.16,52.334 203.175,52.721 203.199,53.155 C203.304,54.826 203.416,56.497 203.523,58.168 C203.849,57.825 203.716,57.965 203.92,57.75 C204.181,57.474 204.302,57.338 204.422,57.184 C204.55,57.021 205.527,55.606 206.103,54.797 C208.283,51.44 209.433,47.949 209.568,44.322 C209.633,41.053 208.846,38.243 207.185,35.784 C206.148,34.212 204.551,33.152 202.848,32.413 z" clip-path="url(#Clip_7)" filter="url(#Shadow_8)" fill="rgba(0,0,0,0.789)"/>
        <path d="M197.227,15.729 L199.932,15.896 C203.64,16.267 207.078,17.272 210.22,18.914 C213.341,20.544 216.019,22.635 218.231,25.177 C220.438,27.712 222.13,30.602 223.298,33.826 C224.47,37.063 225.01,40.463 224.913,44.086 C224.734,47.684 224.038,51.272 222.833,54.844 C221.629,58.409 219.979,61.756 217.884,64.876 C215.792,67.991 213.301,70.816 210.416,73.345 C207.47,75.929 204.216,77.955 200.666,79.411 L200.447,79.501 L200.216,79.561 C197.392,80.293 195.07,80.406 193.132,79.714 C191.375,79.087 190.026,78.235 189.13,76.98 L188.885,76.637 L188.728,76.246 C188.347,75.293 188.232,74.251 188.3,73.084 C188.633,71.187 188.316,72.194 189.447,70.134 C188.506,62.87 188.1,55.554 187.805,48.24 C187.669,42.956 187.536,37.671 187.515,32.385 C185.932,32.874 186.015,32.943 183.607,32.716 C183.112,32.669 182.661,32.409 182.189,32.255 C180.805,31.674 179.7,30.664 178.815,29.476 L178.807,29.482 L178.769,29.414 L178.706,29.329 L178.718,29.322 C177.427,27.341 177.463,26.148 177.807,23.978 C178.323,22.084 179.643,20.609 181.547,19.521 C183.733,18.285 186.402,17.296 189.557,16.529 C193.739,15.714 191.198,16.096 197.227,15.729 z M202.292,31.627 L202.347,32.258 C202.347,37.221 202.408,42.552 202.531,48.253 C202.744,54.826 202.58,51.127 203.097,59.348 C205.404,56.886 204.232,58.288 206.523,55.069 C208.76,51.624 209.93,48.045 210.068,44.332 C210.136,40.952 209.314,38.043 207.6,35.505 C206.324,33.601 204.407,32.397 202.292,31.627 z" fill="url(#Gradient_4)"/>
        <path d="M197.227,15.729 L199.932,15.896 C203.64,16.267 207.078,17.272 210.22,18.914 C213.341,20.544 216.019,22.635 218.231,25.177 C220.438,27.712 222.13,30.602 223.298,33.826 C224.47,37.063 225.01,40.463 224.913,44.086 C224.734,47.684 224.038,51.272 222.833,54.844 C221.629,58.409 219.979,61.756 217.884,64.876 C215.792,67.991 213.301,70.816 210.416,73.345 C207.47,75.929 204.216,77.955 200.666,79.411 L200.447,79.501 L200.216,79.561 C197.392,80.293 195.07,80.406 193.132,79.714 C191.375,79.087 190.026,78.235 189.13,76.98 L188.885,76.637 L188.728,76.246 C188.347,75.293 188.232,74.251 188.3,73.084 C188.633,71.187 188.316,72.194 189.447,70.134 C188.506,62.87 188.1,55.554 187.805,48.24 C187.669,42.956 187.536,37.671 187.515,32.385 C185.932,32.874 186.015,32.943 183.607,32.716 C183.112,32.669 182.661,32.409 182.189,32.255 C180.805,31.674 179.7,30.664 178.815,29.476 L178.807,29.482 L178.769,29.414 L178.706,29.329 L178.718,29.322 C177.427,27.341 177.463,26.148 177.807,23.978 C178.323,22.084 179.643,20.609 181.547,19.521 C183.733,18.285 186.402,17.296 189.557,16.529 C193.739,15.714 191.198,16.096 197.227,15.729 z M202.292,31.627 L202.347,32.258 C202.347,37.221 202.408,42.552 202.531,48.253 C202.744,54.826 202.58,51.127 203.097,59.348 C205.404,56.886 204.232,58.288 206.523,55.069 C208.76,51.624 209.93,48.045 210.068,44.332 C210.136,40.952 209.314,38.043 207.6,35.505 C206.324,33.601 204.407,32.397 202.292,31.627 z" fill-opacity="0" stroke="#000000" stroke-width="1"/>
      </g>
      <g>
        <path d="M246.646,21.812 L246.651,21.853 L247.61,21.85 L247.753,21.871 C248.314,22.037 249.174,22.261 249.279,22.299 C249.418,22.351 249.529,22.409 249.709,22.519 C249.922,22.653 249.769,22.557 250.166,22.806 C250.424,22.701 250.308,22.736 250.508,22.687 C250.923,22.595 251.105,22.55 251.771,22.357 C253.993,21.828 256.427,21.765 258.959,22.156 C263.629,22.74 267.426,24.211 270.324,26.591 C273.094,28.867 275.175,31.556 276.534,34.626 C277.855,37.612 278.544,40.759 278.592,44.027 C278.677,46.586 278.412,49.237 277.829,52.355 C277.359,54.809 276.389,57.109 274.699,60.157 C273.299,62.461 271.694,64.608 269.886,66.597 C268.04,68.627 266.024,70.388 263.842,71.874 C261.654,73.363 259.429,74.532 257.131,75.393 C252.938,76.918 248.721,77.42 244.529,76.89 C240.082,76.328 236.099,74.309 232.696,70.905 L232.542,70.748 L232.433,70.616 C230.194,67.889 228.602,64.805 227.677,61.396 C226.803,58.175 226.388,54.88 226.434,51.523 C226.48,48.194 226.938,44.968 227.808,41.854 C228.669,38.772 229.789,35.989 231.179,33.487 C232.885,30.454 234.95,27.914 237.357,25.892 C239.565,23.868 242.386,22.872 245.232,22.132 L245.221,22.088 L245.749,21.992 L245.985,21.949 L246.122,21.921 L246.646,21.812 z M255.395,38.303 C254.594,38.481 253.789,38.637 252.987,38.808 C252.843,38.847 252.719,38.893 252.473,38.999 C252.412,39.026 251.645,39.366 251.273,39.527 L250.838,39.716 L250.838,39.716 C249.509,40.501 247.981,40.197 246.564,39.905 L246.235,40.283 C245.368,41.407 244.658,42.685 244.101,44.126 C243.537,45.585 243.171,47.175 243.001,48.902 C242.82,50.747 242.802,52.53 242.944,54.242 C243.123,56.324 243.696,57.935 244.658,59.138 C245.327,59.973 246.497,60.397 248.404,60.397 C249.697,60.397 250.977,60.145 252.269,59.634 C253.675,59.079 254.958,58.348 256.129,57.437 C257.332,56.502 258.442,55.373 259.463,54.046 C260.492,52.708 261.301,51.341 261.936,49.862 C262.201,49.278 262.437,48.453 262.623,47.428 C262.812,46.391 262.874,45.318 262.81,44.201 C262.756,43.244 262.54,42.34 262.158,41.467 C261.872,40.814 261.424,40.266 260.799,39.807 C259.655,38.99 258.267,38.497 256.622,38.325 L255.395,38.303 z" clip-path="url(#Clip_9)" filter="url(#Shadow_10)" fill="rgba(0,0,0,0.789)"/>
        <path d="M247.611,22.35 C249.593,22.937 248.776,22.538 250.136,23.377 C250.759,23.064 250.21,23.331 251.887,22.843 C254.068,22.324 256.442,22.273 258.897,22.652 C263.437,23.22 267.162,24.641 270.007,26.978 C272.71,29.199 274.746,31.823 276.076,34.828 C277.371,37.753 278.045,40.834 278.093,44.043 C278.184,46.807 277.845,49.551 277.338,52.261 C276.816,54.987 275.606,57.49 274.272,59.897 C272.888,62.174 271.303,64.296 269.516,66.26 C267.698,68.261 265.712,69.996 263.56,71.46 C261.414,72.922 259.224,74.074 256.96,74.923 C252.848,76.419 248.711,76.915 244.592,76.394 C240.244,75.845 236.366,73.868 233.049,70.552 L232.928,70.43 L232.82,70.298 C230.625,67.626 229.066,64.605 228.16,61.266 C227.298,58.089 226.889,54.84 226.934,51.53 C226.979,48.246 227.431,45.063 228.289,41.988 C229.138,38.952 230.242,36.204 231.615,33.732 C233.288,30.759 235.312,28.263 237.689,26.266 C239.994,24.223 242.867,23.11 245.84,22.491 L245.838,22.484 L246.087,22.439 L246.224,22.41 L246.225,22.414 L246.562,22.353 L247.611,22.35 z M255.346,37.802 C252.04,38.536 253.44,38.04 251.073,39.069 L251.063,39.048 C249.535,39.992 248.331,39.791 246.745,39.443 L246.426,39.303 L245.839,39.977 C244.945,41.137 244.21,42.457 243.634,43.946 C243.056,45.444 242.678,47.077 242.504,48.853 C242.319,50.731 242.301,52.544 242.446,54.285 C242.635,56.489 243.253,58.182 244.268,59.45 C245.016,60.386 246.288,60.897 248.404,60.897 C249.757,60.897 251.1,60.634 252.453,60.099 C253.903,59.526 255.228,58.771 256.437,57.831 C257.67,56.872 258.81,55.715 259.859,54.351 C260.91,52.984 261.742,51.581 262.391,50.069 C262.669,49.456 262.918,48.602 263.115,47.517 C263.31,46.444 263.376,45.33 263.31,44.173 C263.252,43.156 263.022,42.194 262.616,41.266 C262.295,40.533 261.792,39.915 261.09,39.4 C259.883,38.538 258.417,38.01 256.631,37.825 L255.346,37.802 z" fill="url(#Gradient_5)"/>
        <path d="M247.611,22.35 C249.593,22.937 248.776,22.538 250.136,23.377 C250.759,23.064 250.21,23.331 251.887,22.843 C254.068,22.324 256.442,22.273 258.897,22.652 C263.437,23.22 267.162,24.641 270.007,26.978 C272.71,29.199 274.746,31.823 276.076,34.828 C277.371,37.753 278.045,40.834 278.093,44.043 C278.184,46.807 277.845,49.551 277.338,52.261 C276.816,54.987 275.606,57.49 274.272,59.897 C272.888,62.174 271.303,64.296 269.516,66.26 C267.698,68.261 265.712,69.996 263.56,71.46 C261.414,72.922 259.224,74.074 256.96,74.923 C252.848,76.419 248.711,76.915 244.592,76.394 C240.244,75.845 236.366,73.868 233.049,70.552 L232.928,70.43 L232.82,70.298 C230.625,67.626 229.066,64.605 228.16,61.266 C227.298,58.089 226.889,54.84 226.934,51.53 C226.979,48.246 227.431,45.063 228.289,41.988 C229.138,38.952 230.242,36.204 231.615,33.732 C233.288,30.759 235.312,28.263 237.689,26.266 C239.994,24.223 242.867,23.11 245.84,22.491 L245.838,22.484 L246.087,22.439 L246.224,22.41 L246.225,22.414 L246.562,22.353 L247.611,22.35 z M255.346,37.802 C252.04,38.536 253.44,38.04 251.073,39.069 L251.063,39.048 C249.535,39.992 248.331,39.791 246.745,39.443 L246.426,39.303 L245.839,39.977 C244.945,41.137 244.21,42.457 243.634,43.946 C243.056,45.444 242.678,47.077 242.504,48.853 C242.319,50.731 242.301,52.544 242.446,54.285 C242.635,56.489 243.253,58.182 244.268,59.45 C245.016,60.386 246.288,60.897 248.404,60.897 C249.757,60.897 251.1,60.634 252.453,60.099 C253.903,59.526 255.228,58.771 256.437,57.831 C257.67,56.872 258.81,55.715 259.859,54.351 C260.91,52.984 261.742,51.581 262.391,50.069 C262.669,49.456 262.918,48.602 263.115,47.517 C263.31,46.444 263.376,45.33 263.31,44.173 C263.252,43.156 263.022,42.194 262.616,41.266 C262.295,40.533 261.792,39.915 261.09,39.4 C259.883,38.538 258.417,38.01 256.631,37.825 L255.346,37.802 z" fill-opacity="0" stroke="#000000" stroke-width="1"/>
      </g>
      <g>
        <path d="M277.829,52.356 L277.829,52.356 L277.824,52.382 L276.844,52.185 L276.847,52.17 L276.846,52.17 L276.852,52.144 L276.854,52.134 L276.857,52.123 L277.829,52.355 L277.829,52.356 z M277.694,52.343 L277.824,52.377 L277.826,52.367 L277.694,52.343 z" clip-path="url(#Clip_11)" filter="url(#Shadow_12)" fill="rgba(0,0,0,0.789)"/>
        <path d="M277.341,52.25 L277.335,52.276 L277.338,52.26 L277.341,52.25 z" fill="url(#Gradient_6)"/>
        <path d="M277.341,52.25 L277.335,52.276 L277.338,52.26 L277.341,52.25 z" fill-opacity="0" stroke="#000000" stroke-width="1"/>
      </g>
      <g>
        <path d="M338.182,18.129 C338.354,18.131 338.815,18.138 338.879,18.139 C338.95,18.139 339.495,18.134 339.628,18.141 C341.17,18.407 342.374,19.164 343.833,20.591 C345.282,22.16 346.265,24.005 346.75,26.068 L346.782,26.209 L346.801,26.32 C348.201,34.636 349.415,42.953 350.445,51.271 C351.471,59.562 352.473,67.828 353.458,76.122 C353.724,78.643 353.194,80.9 351.868,82.742 C350.387,84.799 348.422,85.938 346.168,85.938 C343.778,85.938 341.803,84.618 340.103,82.105 C338.962,80.557 338.375,78.708 338.017,76.841 L337.981,76.846 L337.912,76.351 C337.261,71.624 336.465,66.097 335.526,59.769 C335.003,56.171 334.409,52.583 333.814,48.995 L332.056,52.375 C329.832,56.67 329.276,57.744 328.498,59.246 C328.498,59.246 328.498,59.246 328.498,59.246 C327.721,60.747 327.166,61.819 324.947,66.103 C322.746,70.384 320.153,72.567 316.849,72.567 C313.259,72.522 310.427,70.545 308.434,67.671 L308.431,67.674 L308.156,67.273 C305.368,63.211 302.484,59.411 299.505,55.877 L297.046,53.014 C297.051,53.561 297.049,53.313 297.053,53.757 C297.058,54.237 297.063,54.473 297.071,54.731 C297.08,55.003 297.179,57.123 297.232,58.353 C297.512,63.505 298.011,68.515 298.729,73.381 L298.801,73.875 L298.776,73.879 C299.08,75.382 298.517,76.85 298,78.228 C297.179,79.778 296.159,80.809 294.776,81.362 L294.645,81.411 C292.173,82.294 289.607,81.793 287.394,80.054 C285.545,78.601 284.343,76.861 283.899,74.935 C283.112,71.787 282.547,68.315 282.201,64.513 C281.867,60.839 281.638,57.124 281.513,53.367 C281.388,49.643 281.326,45.959 281.326,42.317 C281.326,38.684 281.368,35.376 281.449,32.504 C281.449,27.049 284.05,23.597 288.638,23.597 C291.038,23.597 293.186,24.513 294.848,26.25 C296.149,27.598 296.835,29.335 297.204,31.138 C301.018,34.906 304.553,38.942 308.069,42.985 C310.159,45.504 312.787,48.65 312.661,48.497 C313.465,49.466 314.239,50.46 315.022,51.445 C315.712,50.188 316.412,48.937 317.097,47.677 C317.062,47.742 319.145,43.911 320.815,40.845 C323.693,35.386 327.106,30.237 330.59,25.151 C330.825,23.966 331.556,22.966 332.22,21.987 C332.338,21.82 332.404,21.727 332.469,21.636 C333.662,20.111 335.083,19.031 336.726,18.434 C337.299,18.253 337.701,18.161 338.141,18.13 L338.182,18.129 z" clip-path="url(#Clip_13)" filter="url(#Shadow_14)" fill="rgba(0,0,0,0.789)"/>
        <path d="M338.176,18.629 C339.11,18.642 338.654,18.64 339.543,18.634 C341.154,18.911 342.336,19.827 343.466,20.93 C344.855,22.435 345.798,24.203 346.263,26.182 L346.289,26.292 L346.308,26.403 C347.707,34.712 348.92,43.022 349.949,51.332 C350.972,59.597 351.974,67.863 352.961,76.174 C353.21,78.539 352.733,80.684 351.462,82.45 C350.12,84.313 348.321,85.438 346.168,85.438 C343.848,85.438 342.034,84.068 340.509,81.814 C339.335,80.174 338.694,78.261 338.418,76.281 L338.408,76.283 C337.756,71.553 336.96,66.024 336.021,59.697 C335.423,55.601 334.741,51.518 334.062,47.435 L331.612,52.145 C328.055,59.014 328.055,59.014 324.503,65.875 C322.492,69.785 320.079,72.067 316.851,72.067 C313.199,72.05 310.441,69.992 308.57,66.99 L308.568,66.991 C305.77,62.914 302.876,59.101 299.884,55.551 L296.532,51.648 C296.579,55.781 296.523,53.537 296.733,58.381 C297.014,63.549 297.514,68.573 298.234,73.454 L298.227,73.455 C298.548,75.225 298.229,76.404 297.558,77.994 C296.839,79.353 295.924,80.365 294.599,80.894 L294.477,80.941 C292.132,81.778 289.747,81.267 287.703,79.661 C285.971,78.3 284.81,76.661 284.384,74.813 C283.602,71.687 283.042,68.239 282.699,64.468 C282.366,60.803 282.137,57.097 282.012,53.351 C281.888,49.632 281.826,45.954 281.826,42.317 C281.826,38.688 281.868,35.385 281.949,32.504 C281.949,27.535 284.184,24.097 288.638,24.097 C290.901,24.097 292.919,24.957 294.48,26.589 C295.698,27.917 296.53,29.575 296.746,31.386 C300.578,35.184 304.154,39.227 307.684,43.305 C313.792,50.665 311.35,47.629 315.097,52.343 C318.353,46.444 316.292,50.193 321.256,41.08 C324.157,35.624 327.536,30.446 331.047,25.368 C331.316,24.07 332.121,22.996 332.863,21.944 C333.982,20.514 335.322,19.476 336.876,18.911 C337.306,18.775 337.727,18.66 338.176,18.629 z" fill="url(#Gradient_7)"/>
        <path d="M338.176,18.629 C339.11,18.642 338.654,18.64 339.543,18.634 C341.154,18.911 342.336,19.827 343.466,20.93 C344.855,22.435 345.798,24.203 346.263,26.182 L346.289,26.292 L346.308,26.403 C347.707,34.712 348.92,43.022 349.949,51.332 C350.972,59.597 351.974,67.863 352.961,76.174 C353.21,78.539 352.733,80.684 351.462,82.45 C350.12,84.313 348.321,85.438 346.168,85.438 C343.848,85.438 342.034,84.068 340.509,81.814 C339.335,80.174 338.694,78.261 338.418,76.281 L338.408,76.283 C337.756,71.553 336.96,66.024 336.021,59.697 C335.423,55.601 334.741,51.518 334.062,47.435 L331.612,52.145 C328.055,59.014 328.055,59.014 324.503,65.875 C322.492,69.785 320.079,72.067 316.851,72.067 C313.199,72.05 310.441,69.992 308.57,66.99 L308.568,66.991 C305.77,62.914 302.876,59.101 299.884,55.551 L296.532,51.648 C296.579,55.781 296.523,53.537 296.733,58.381 C297.014,63.549 297.514,68.573 298.234,73.454 L298.227,73.455 C298.548,75.225 298.229,76.404 297.558,77.994 C296.839,79.353 295.924,80.365 294.599,80.894 L294.477,80.941 C292.132,81.778 289.747,81.267 287.703,79.661 C285.971,78.3 284.81,76.661 284.384,74.813 C283.602,71.687 283.042,68.239 282.699,64.468 C282.366,60.803 282.137,57.097 282.012,53.351 C281.888,49.632 281.826,45.954 281.826,42.317 C281.826,38.688 281.868,35.385 281.949,32.504 C281.949,27.535 284.184,24.097 288.638,24.097 C290.901,24.097 292.919,24.957 294.48,26.589 C295.698,27.917 296.53,29.575 296.746,31.386 C300.578,35.184 304.154,39.227 307.684,43.305 C313.792,50.665 311.35,47.629 315.097,52.343 C318.353,46.444 316.292,50.193 321.256,41.08 C324.157,35.624 327.536,30.446 331.047,25.368 C331.316,24.07 332.121,22.996 332.863,21.944 C333.982,20.514 335.322,19.476 336.876,18.911 C337.306,18.775 337.727,18.66 338.176,18.629 z" fill-opacity="0" stroke="#000000" stroke-width="1"/>
      </g>
      <g>
        <path d="M367.853,16.21 L369.276,16.401 L370.895,16.623 C372.372,17.026 373.805,17.821 375.225,19.004 L375.335,19.097 L375.416,19.174 C380.613,24.102 384.591,30.327 387.337,37.811 C390.068,45.257 391.124,53.875 390.517,63.67 L390.509,63.777 C390.204,67.127 389.233,70.065 387.595,72.548 C385.992,74.979 383.97,76.919 381.558,78.334 C379.185,79.727 376.555,80.58 373.679,80.888 C373.306,80.91 372.316,80.972 372.177,80.98 C371.723,81.007 371.416,81.018 371.109,81.016 C370.338,81.013 369.661,80.939 367.467,80.634 C367.088,80.582 366.799,80.511 366.163,80.333 L366.028,80.296 L366.02,80.324 L365.529,80.167 L365.509,80.159 L365.418,80.137 L364.908,80.012 L364.919,79.973 C364.445,79.833 363.977,79.672 363.509,79.512 C363.315,79.435 362.08,78.857 361.562,78.62 C360.238,77.933 359.007,77.145 357.871,76.256 C356.554,75.225 355.475,74.026 354.656,72.681 C353.73,71.279 353.452,69.6 353.366,67.954 L353.273,67.952 L353.334,67.408 L353.34,67.381 L353.34,67.215 L353.338,66.677 L353.414,66.683 C353.444,64.846 354.721,63.361 355.79,61.998 C356.704,61.084 357.557,60.275 358.353,59.567 L358.673,59.295 L358.953,59.127 C359.939,58.535 361.012,57.998 362.171,57.515 C364.689,56.466 367.329,57.085 369.359,59.115 L369.722,59.478 L369.809,59.595 L370.053,60.047 C371.007,61.892 371.292,63.634 370.764,65.694 L370.783,65.692 L370.926,65.68 C372.354,65.585 373.265,65.248 373.752,64.711 C374.464,63.928 374.931,62.915 375.167,61.603 C375.468,59.933 375.517,58.075 375.31,56.04 C375.226,55.345 374.949,52.979 374.902,52.643 C374.854,52.292 374.446,49.761 374.382,49.356 C373.738,46.053 372.5,42.845 370.439,38.71 C368.589,35.311 366.466,32.304 364.062,29.674 C362.776,28.26 361.938,26.72 361.579,25.073 C361.074,22.747 361.852,20.486 363.702,18.635 L364,18.35 L364.295,18.148 C364.672,17.927 365.47,17.448 365.55,17.401 C365.857,17.223 366.042,17.134 366.273,17.061 C366.926,16.9 367.587,16.768 368.242,16.613 L367.853,16.21 z" clip-path="url(#Clip_15)" filter="url(#Shadow_16)" fill="rgba(0,0,0,0.789)"/>
        <path d="M369.21,16.897 L370.764,17.106 C372.192,17.495 373.563,18.271 374.905,19.388 L374.991,19.46 L375.072,19.537 C380.22,24.419 384.152,30.582 386.867,37.983 C389.58,45.378 390.619,53.933 390.019,63.632 L390.011,63.732 C389.715,66.984 388.778,69.847 387.178,72.273 C385.619,74.636 383.654,76.524 381.305,77.903 C378.99,79.262 376.427,80.091 373.65,80.389 C370.822,80.553 371.124,80.637 367.536,80.139 C366.906,80.052 366.301,79.838 365.683,79.687 L365.682,79.691 L365.628,79.673 L365.536,79.651 L365.538,79.645 C363.077,78.853 364.33,79.332 361.792,78.176 C360.497,77.505 359.292,76.733 358.179,75.862 C356.914,74.872 355.873,73.719 355.077,72.411 C354.126,70.93 353.844,69.19 353.84,67.463 L353.831,67.463 L353.84,67.379 L353.84,67.214 L353.858,67.215 C353.835,65.298 354.961,63.737 356.144,62.351 C357.049,61.446 357.896,60.643 358.686,59.941 L358.93,59.723 L359.21,59.555 C360.178,58.975 361.229,58.449 362.363,57.977 C364.737,56.988 367.156,57.619 369.006,59.469 L369.369,59.832 L369.612,60.284 C370.646,62.203 370.853,64.271 370.115,66.239 L370.114,66.241 L370.826,66.19 L370.959,66.179 C372.571,66.072 373.562,65.665 374.122,65.048 C374.891,64.203 375.404,63.11 375.659,61.691 C375.967,59.982 376.02,58.08 375.806,55.98 C375.26,51.44 375.573,53.679 374.873,49.26 C374.133,45.464 372.594,41.911 370.878,38.471 C369.007,35.034 366.861,31.995 364.432,29.338 C363.223,28.008 362.412,26.549 362.068,24.967 C361.587,22.754 362.373,20.672 364.056,18.989 L364.283,18.762 L364.548,18.58 C367.023,17.129 365.52,17.813 369.21,16.897 z" fill="url(#Gradient_8)"/>
        <path d="M369.21,16.897 L370.764,17.106 C372.192,17.495 373.563,18.271 374.905,19.388 L374.991,19.46 L375.072,19.537 C380.22,24.419 384.152,30.582 386.867,37.983 C389.58,45.378 390.619,53.933 390.019,63.632 L390.011,63.732 C389.715,66.984 388.778,69.847 387.178,72.273 C385.619,74.636 383.654,76.524 381.305,77.903 C378.99,79.262 376.427,80.091 373.65,80.389 C370.822,80.553 371.124,80.637 367.536,80.139 C366.906,80.052 366.301,79.838 365.683,79.687 L365.682,79.691 L365.628,79.673 L365.536,79.651 L365.538,79.645 C363.077,78.853 364.33,79.332 361.792,78.176 C360.497,77.505 359.292,76.733 358.179,75.862 C356.914,74.872 355.873,73.719 355.077,72.411 C354.126,70.93 353.844,69.19 353.84,67.463 L353.831,67.463 L353.84,67.379 L353.84,67.214 L353.858,67.215 C353.835,65.298 354.961,63.737 356.144,62.351 C357.049,61.446 357.896,60.643 358.686,59.941 L358.93,59.723 L359.21,59.555 C360.178,58.975 361.229,58.449 362.363,57.977 C364.737,56.988 367.156,57.619 369.006,59.469 L369.369,59.832 L369.612,60.284 C370.646,62.203 370.853,64.271 370.115,66.239 L370.114,66.241 L370.826,66.19 L370.959,66.179 C372.571,66.072 373.562,65.665 374.122,65.048 C374.891,64.203 375.404,63.11 375.659,61.691 C375.967,59.982 376.02,58.08 375.806,55.98 C375.26,51.44 375.573,53.679 374.873,49.26 C374.133,45.464 372.594,41.911 370.878,38.471 C369.007,35.034 366.861,31.995 364.432,29.338 C363.223,28.008 362.412,26.549 362.068,24.967 C361.587,22.754 362.373,20.672 364.056,18.989 L364.283,18.762 L364.548,18.58 C367.023,17.129 365.52,17.813 369.21,16.897 z" fill-opacity="0" stroke="#000000" stroke-width="1"/>
      </g>
      <g>
        <path d="M433.779,23.301 C435.478,23.195 436.906,23.734 438.523,24.947 C440.07,26.292 441.159,28.109 441.78,30.342 L441.827,30.532 C442.171,32.081 442.512,33.89 442.851,35.968 C443.201,38.112 443.441,40.336 443.572,42.643 C443.701,44.933 443.723,47.285 443.637,49.697 C443.548,52.195 443.279,54.608 442.826,56.963 C442.223,59.976 441.011,62.754 439.206,65.262 C437.51,67.618 435.44,69.739 433.061,71.568 C430.718,73.443 428.118,74.966 425.271,76.132 C422.518,77.261 419.754,78.076 416.982,78.576 C414.099,79.096 411.248,79.19 408.44,78.857 C405.501,78.508 402.848,77.668 400.473,76.325 C397.815,74.792 395.643,72.772 393.992,70.295 C392.189,67.592 391.397,64.33 391.609,60.604 C391.779,57.718 392.035,55.056 392.377,52.617 C392.724,50.148 393.18,47.781 393.746,45.517 C394.293,43.329 394.903,41.12 395.576,38.891 C396.234,36.713 396.932,34.433 397.67,32.054 L397.716,31.912 L397.757,31.803 C398.589,29.717 400.266,28.219 402.431,27.618 L402.413,27.525 L402.962,27.47 L402.961,27.474 L403.059,27.452 L403.578,27.338 L403.588,27.404 C404.1,27.349 403.891,27.368 404.215,27.34 C404.431,27.34 404.317,27.337 404.557,27.351 C405.058,27.39 404.842,27.374 405.206,27.401 L405.205,27.407 L405.211,27.401 L405.214,27.402 L405.701,27.436 L406.236,27.474 L406.233,27.5 C407.527,27.957 407.122,27.77 408.113,28.311 C408.229,28.378 408.229,28.378 408.361,28.454 C409.166,28.967 409.903,29.628 410.574,30.434 C411.227,31.217 411.772,32.111 412.208,33.108 C412.88,34.643 412.954,36.344 412.456,38.003 C411.722,40.612 410.989,43.26 410.256,45.945 C409.539,48.576 408.922,51.084 408.405,53.468 C407.916,55.727 407.616,57.723 407.507,59.422 C407.504,59.516 407.501,59.594 407.495,59.765 C407.482,60.09 407.478,60.241 407.477,60.421 C407.52,61.36 407.46,60.929 407.625,61.719 C408.025,62.311 408.735,62.543 409.371,62.78 C410.688,63.102 412.094,63.144 413.616,62.9 C415.363,62.621 417.055,62.15 418.698,61.486 C420.379,60.806 421.816,60.082 422.946,59.351 C424.546,58.285 425.671,57.011 426.38,55.479 C427.21,53.687 427.726,51.716 427.929,49.549 C428.15,47.191 428.131,44.709 427.87,42.102 C427.594,39.339 427.219,36.617 426.746,33.935 L426.659,33.447 L426.674,33.444 C426.422,32.169 426.701,30.843 426.896,29.58 C427.372,27.36 428.685,25.537 430.68,24.309 L430.816,24.231 C431.031,24.127 431.51,23.891 431.572,23.861 C431.761,23.77 431.879,23.723 432.023,23.682 C432.447,23.586 432.872,23.5 433.296,23.404 L433.293,23.331 L433.779,23.301 z M404.554,27.351 L404.569,27.352 L404.557,27.351 L404.554,27.351 z" clip-path="url(#Clip_17)" filter="url(#Shadow_18)" fill="rgba(0,0,0,0.789)"/>
        <path d="M433.81,23.8 C435.525,23.693 436.87,24.331 438.195,25.324 C439.684,26.619 440.711,28.361 441.294,30.463 L441.339,30.64 C441.682,32.183 442.021,33.984 442.358,36.049 C442.705,38.176 442.943,40.383 443.073,42.671 C443.201,44.947 443.223,47.283 443.137,49.679 C443.049,52.146 442.784,54.534 442.335,56.865 C441.747,59.809 440.563,62.521 438.8,64.97 C437.126,67.295 435.088,69.379 432.749,71.178 C430.441,73.024 427.883,74.522 425.082,75.67 C422.363,76.784 419.633,77.59 416.893,78.084 C414.061,78.594 411.26,78.688 408.499,78.36 C405.639,78.021 403.047,77.206 400.723,75.892 C398.135,74.399 396.018,72.434 394.408,70.018 C392.654,67.388 391.903,64.224 392.109,60.634 C392.278,57.763 392.532,55.115 392.873,52.686 C393.217,50.236 393.669,47.887 394.231,45.639 C394.776,43.458 395.384,41.257 396.055,39.036 C396.711,36.86 397.409,34.582 398.148,32.202 L398.182,32.091 L398.224,31.983 C399.056,29.824 400.785,28.463 403.013,27.974 L403.012,27.968 L403.068,27.962 L403.166,27.94 L403.168,27.952 C404.589,27.809 403.922,27.812 405.17,27.9 L405.17,27.9 L405.179,27.9 L405.665,27.935 L405.664,27.942 C406.556,27.962 407.347,28.445 408.092,28.876 C408.862,29.366 409.559,29.997 410.19,30.754 C410.816,31.505 411.335,32.36 411.75,33.309 C412.387,34.764 412.431,36.348 411.974,37.867 C411.241,40.475 410.507,43.124 409.774,45.814 C409.054,48.455 408.435,50.971 407.916,53.362 C407.42,55.654 407.118,57.672 407.007,59.406 C406.982,60.244 406.904,61.129 407.164,61.941 C407.644,62.675 408.461,63.004 409.252,63.266 C410.628,63.603 412.101,63.649 413.695,63.394 C415.479,63.109 417.208,62.627 418.885,61.949 C420.611,61.251 422.071,60.512 423.223,59.767 C424.907,58.645 426.089,57.298 426.834,55.689 C427.686,53.849 428.218,51.824 428.427,49.595 C428.651,47.209 428.632,44.695 428.368,42.052 C428.09,39.276 427.714,36.542 427.238,33.848 L427.245,33.847 C426.926,32.469 427.147,31.054 427.385,29.685 C427.835,27.588 429.073,25.885 430.936,24.739 L431.034,24.681 C432.523,23.961 431.619,24.316 433.81,23.8 L433.81,23.8 z" fill="url(#Gradient_9)"/>
        <path d="M433.81,23.8 C435.525,23.693 436.87,24.331 438.195,25.324 C439.684,26.619 440.711,28.361 441.294,30.463 L441.339,30.64 C441.682,32.183 442.021,33.984 442.358,36.049 C442.705,38.176 442.943,40.383 443.073,42.671 C443.201,44.947 443.223,47.283 443.137,49.679 C443.049,52.146 442.784,54.534 442.335,56.865 C441.747,59.809 440.563,62.521 438.8,64.97 C437.126,67.295 435.088,69.379 432.749,71.178 C430.441,73.024 427.883,74.522 425.082,75.67 C422.363,76.784 419.633,77.59 416.893,78.084 C414.061,78.594 411.26,78.688 408.499,78.36 C405.639,78.021 403.047,77.206 400.723,75.892 C398.135,74.399 396.018,72.434 394.408,70.018 C392.654,67.388 391.903,64.224 392.109,60.634 C392.278,57.763 392.532,55.115 392.873,52.686 C393.217,50.236 393.669,47.887 394.231,45.639 C394.776,43.458 395.384,41.257 396.055,39.036 C396.711,36.86 397.409,34.582 398.148,32.202 L398.182,32.091 L398.224,31.983 C399.056,29.824 400.785,28.463 403.013,27.974 L403.012,27.968 L403.068,27.962 L403.166,27.94 L403.168,27.952 C404.589,27.809 403.922,27.812 405.17,27.9 L405.17,27.9 L405.179,27.9 L405.665,27.935 L405.664,27.942 C406.556,27.962 407.347,28.445 408.092,28.876 C408.862,29.366 409.559,29.997 410.19,30.754 C410.816,31.505 411.335,32.36 411.75,33.309 C412.387,34.764 412.431,36.348 411.974,37.867 C411.241,40.475 410.507,43.124 409.774,45.814 C409.054,48.455 408.435,50.971 407.916,53.362 C407.42,55.654 407.118,57.672 407.007,59.406 C406.982,60.244 406.904,61.129 407.164,61.941 C407.644,62.675 408.461,63.004 409.252,63.266 C410.628,63.603 412.101,63.649 413.695,63.394 C415.479,63.109 417.208,62.627 418.885,61.949 C420.611,61.251 422.071,60.512 423.223,59.767 C424.907,58.645 426.089,57.298 426.834,55.689 C427.686,53.849 428.218,51.824 428.427,49.595 C428.651,47.209 428.632,44.695 428.368,42.052 C428.09,39.276 427.714,36.542 427.238,33.848 L427.245,33.847 C426.926,32.469 427.147,31.054 427.385,29.685 C427.835,27.588 429.073,25.885 430.936,24.739 L431.034,24.681 C432.523,23.961 431.619,24.316 433.81,23.8 L433.81,23.8 z" fill-opacity="0" stroke="#000000" stroke-width="1"/>
      </g>
      <g>
        <path d="M493.284,19.805 L493.294,19.805 L493.29,19.806 C497.821,20.287 500.06,22.784 500.433,27.229 L500.432,27.414 L500.42,27.557 C499.845,34.541 499.167,41.668 498.387,48.938 C497.596,56.304 496.534,63.237 495.196,69.759 C494.723,72.007 494.013,73.658 492.943,74.881 C491.801,76.186 490.253,77.062 488.367,77.497 L488.194,77.532 C486.391,77.86 484.436,77.466 482.061,76.37 C479.869,75.358 478.027,73.88 476.534,71.926 C475.128,70.023 473.62,67.937 472.011,65.668 C470.456,63.475 468.78,61.24 466.982,58.963 C463.393,54.536 465.173,56.673 461.652,52.546 C461.631,53.074 461.641,52.808 461.624,53.343 C461.581,54.708 461.534,56.135 461.424,59.307 C461.263,64.5 461.263,69.712 461.424,74.953 L461.426,75.068 C461.426,78.351 459.015,80.173 455.463,80.173 C452.483,80.173 449.954,78.64 448.261,75.888 C447.078,74.127 446.505,72.066 446.091,70.01 L446.046,70.016 L445.986,69.514 L445.971,69.386 L445.967,69.363 L445.973,69.354 L445.967,69.355 C445.74,67.797 445.641,66.207 445.602,64.047 C445.593,63.578 445.589,63.205 445.58,62.361 C445.578,62.124 445.578,62.124 445.575,61.882 C445.575,58.767 445.638,55.508 445.762,52.107 C445.885,48.733 446.029,45.482 446.194,42.352 C446.36,39.196 446.527,36.697 446.693,34.87 C446.928,32.053 447.686,29.889 449.063,28.295 C450.7,26.399 452.641,25.467 454.757,25.702 C457.589,25.986 459.645,26.985 460.931,28.865 C461.081,29.123 461.396,29.654 461.406,29.671 C461.523,29.872 461.584,29.989 461.64,30.133 C461.809,30.645 461.963,31.162 462.128,31.676 C464.769,33.554 467.135,35.778 469.492,37.993 C472.086,40.545 474.47,43.142 476.646,45.786 C480.487,50.627 478.759,48.351 481.869,52.584 C481.994,51.723 482.123,50.862 482.241,50 C482.287,49.633 482.571,47.017 482.702,45.839 C483.258,40.36 483.801,34.926 484.586,27.047 C484.497,24.979 485.612,23.275 487.695,21.608 C489.599,20.228 490.981,19.84 493.29,19.806 L493.284,19.805 z" clip-path="url(#Clip_19)" filter="url(#Shadow_20)" fill="rgba(0,0,0,0.789)"/>
        <path d="M493.248,20.303 C497.318,20.594 499.934,23.21 499.933,27.229 L499.933,27.373 L499.922,27.516 C499.347,34.497 498.669,41.619 497.889,48.885 C497.101,56.23 496.042,63.148 494.706,69.656 C494.267,71.744 493.608,73.362 492.566,74.552 C491.477,75.797 490.008,76.605 488.266,77.007 L488.105,77.04 C486.349,77.36 484.459,76.926 482.271,75.916 C480.16,74.942 478.38,73.518 476.936,71.629 C475.532,69.729 474.026,67.646 472.419,65.379 C470.859,63.18 469.178,60.938 467.375,58.654 C465.571,56.37 463.687,54.105 461.722,51.859 L461.202,51.299 C461.089,54.003 461.2,51.339 460.924,59.292 C460.763,64.494 460.763,69.717 460.924,74.961 L460.926,75.068 C460.926,78.279 458.448,79.673 455.463,79.673 C452.619,79.673 450.266,78.192 448.68,75.615 C447.466,73.755 446.84,71.624 446.488,69.454 L446.482,69.454 L446.464,69.306 L446.461,69.284 L446.462,69.283 C446.104,66.834 446.102,64.351 446.075,61.882 C446.075,58.772 446.137,55.52 446.262,52.125 C446.385,48.754 446.529,45.505 446.693,42.378 C446.859,39.23 447.025,36.736 447.191,34.912 C447.411,32.277 448.103,30.171 449.441,28.621 C450.899,26.933 452.674,25.974 454.707,26.2 C457.27,26.456 459.273,27.325 460.498,29.117 C461.423,30.704 460.975,29.771 461.7,31.98 C464.364,33.881 466.769,36.106 469.141,38.35 C471.722,40.888 474.095,43.473 476.259,46.104 C478.399,48.705 480.373,51.289 482.182,53.855 L482.187,53.862 C482.924,48.796 482.579,51.452 483.199,45.889 C483.838,39.602 484.463,33.314 485.086,27.025 C484.993,24.882 486.434,23.258 487.99,22.011 C489.686,20.772 491.468,20.141 493.248,20.303 z" fill="url(#Gradient_10)"/>
        <path d="M493.248,20.303 C497.318,20.594 499.934,23.21 499.933,27.229 L499.933,27.373 L499.922,27.516 C499.347,34.497 498.669,41.619 497.889,48.885 C497.101,56.23 496.042,63.148 494.706,69.656 C494.267,71.744 493.608,73.362 492.566,74.552 C491.477,75.797 490.008,76.605 488.266,77.007 L488.105,77.04 C486.349,77.36 484.459,76.926 482.271,75.916 C480.16,74.942 478.38,73.518 476.936,71.629 C475.532,69.729 474.026,67.646 472.419,65.379 C470.859,63.18 469.178,60.938 467.375,58.654 C465.571,56.37 463.687,54.105 461.722,51.859 L461.202,51.299 C461.089,54.003 461.2,51.339 460.924,59.292 C460.763,64.494 460.763,69.717 460.924,74.961 L460.926,75.068 C460.926,78.279 458.448,79.673 455.463,79.673 C452.619,79.673 450.266,78.192 448.68,75.615 C447.466,73.755 446.84,71.624 446.488,69.454 L446.482,69.454 L446.464,69.306 L446.461,69.284 L446.462,69.283 C446.104,66.834 446.102,64.351 446.075,61.882 C446.075,58.772 446.137,55.52 446.262,52.125 C446.385,48.754 446.529,45.505 446.693,42.378 C446.859,39.23 447.025,36.736 447.191,34.912 C447.411,32.277 448.103,30.171 449.441,28.621 C450.899,26.933 452.674,25.974 454.707,26.2 C457.27,26.456 459.273,27.325 460.498,29.117 C461.423,30.704 460.975,29.771 461.7,31.98 C464.364,33.881 466.769,36.106 469.141,38.35 C471.722,40.888 474.095,43.473 476.259,46.104 C478.399,48.705 480.373,51.289 482.182,53.855 L482.187,53.862 C482.924,48.796 482.579,51.452 483.199,45.889 C483.838,39.602 484.463,33.314 485.086,27.025 C484.993,24.882 486.434,23.258 487.99,22.011 C489.686,20.772 491.468,20.141 493.248,20.303 z" fill-opacity="0" stroke="#000000" stroke-width="1"/>
      </g>
      <g>
        <path d="M507.841,17.218 C509.079,17.219 510.282,17.527 511.394,18.126 C512.27,18.598 513.074,19.199 513.798,19.923 C514.516,20.641 515.091,21.392 515.523,22.186 C515.932,22.935 516.214,23.621 516.383,24.297 L516.435,24.513 L516.46,24.684 C516.866,27.443 517.312,30.304 517.799,33.268 L518.383,36.951 C518.996,36.57 519.61,36.191 520.231,35.823 C520.339,35.759 521.252,35.221 521.692,34.961 C522.602,34.424 523.701,33.772 525.143,32.914 C529.434,30.408 533.463,28.384 537.238,26.839 L537.539,26.721 L537.783,26.66 C538.555,26.468 539.385,26.418 540.348,26.492 C541.239,26.56 542.138,26.758 543.042,27.081 C544.029,27.433 544.907,27.913 545.668,28.521 C546.678,29.33 547.415,30.384 547.826,31.617 L547.874,31.773 C548.315,33.317 548.113,34.931 547.328,36.735 C546.778,38.026 545.94,39.215 544.738,39.969 L544.757,40.001 L544.326,40.252 C543.348,40.822 542.064,41.577 540.478,42.512 C538.896,43.445 537.232,44.44 535.489,45.493 C534.593,46.041 533.298,46.831 533.165,46.913 C532.818,47.127 532.473,47.344 532.128,47.561 C533.284,48.109 534.434,48.672 535.593,49.217 C535.898,49.357 536.176,49.477 536.734,49.712 C536.572,49.644 538.376,50.401 539.208,50.752 C543.468,52.471 547.989,53.88 552.773,54.978 L553.263,55.09 L553.257,55.115 C554.427,55.355 555.355,56.23 556.24,56.968 C557.121,57.849 557.829,58.891 558.355,60.074 C558.878,61.25 559.177,62.46 559.245,63.684 C559.337,65.337 558.888,66.887 557.899,68.269 C556.769,69.777 555.145,70.722 553.241,70.994 C551.955,71.178 550.644,71.148 549.31,70.906 L549.116,70.865 C542.688,69.343 536.796,67.455 531.43,65.198 C530.436,64.763 528.383,63.867 528.247,63.807 C527.537,63.496 527.16,63.326 526.732,63.122 C525.013,62.281 523.299,61.43 521.58,60.589 L521.942,64.13 C522.313,67.915 522.662,71.906 522.992,76.106 L523.004,76.281 L523.004,76.418 C523.004,79.243 521.283,81.443 518.557,81.897 C517.356,82.097 516.081,82.071 514.731,81.825 C513.404,81.584 512.172,81.151 511.051,80.528 C509.483,79.657 508.473,78.649 507.93,77.29 L507.766,76.88 L507.734,76.759 L507.677,76.322 C507.185,72.548 506.674,68.577 506.143,64.412 C505.615,60.274 505.027,56.074 504.378,51.813 C503.728,47.548 503.037,43.325 502.306,39.141 C501.574,34.949 500.842,30.943 500.103,27.086 C499.78,25.309 500.111,23.449 501.05,21.503 C502.239,19.041 504.508,17.547 507.422,17.24 L507.658,17.218 L507.841,17.218 z" clip-path="url(#Clip_21)" filter="url(#Shadow_22)" fill="rgba(0,0,0,0.789)"/>
        <path d="M507.841,17.718 C509.001,17.719 510.122,18.009 511.157,18.566 C511.992,19.016 512.757,19.589 513.444,20.277 C514.119,20.952 514.67,21.664 515.085,22.425 C515.461,23.116 515.736,23.767 515.898,24.418 L515.94,24.586 L515.965,24.757 C516.371,27.518 516.818,30.381 517.306,33.347 L518.006,37.771 C521.304,35.733 518.857,37.236 525.396,33.346 C529.661,30.854 533.669,28.839 537.428,27.302 L537.66,27.206 L537.904,27.145 C538.646,26.96 539.433,26.923 540.31,26.99 C541.162,27.056 542.018,27.246 542.874,27.552 C543.799,27.882 544.631,28.333 545.355,28.912 C546.289,29.659 546.97,30.632 547.348,31.765 L547.393,31.91 C547.819,33.4 547.572,34.921 546.869,36.537 C546.291,37.873 545.413,39.156 544.065,39.805 L544.074,39.82 C543.098,40.39 541.815,41.143 540.224,42.081 C538.641,43.015 536.976,44.01 535.228,45.067 C532.129,46.963 533.506,46.108 531.091,47.62 C536.82,50.344 534.168,49.168 539.021,51.215 C543.304,52.944 547.85,54.361 552.661,55.465 L552.658,55.478 C553.934,55.675 554.953,56.494 555.886,57.322 C556.727,58.163 557.399,59.155 557.898,60.277 C558.394,61.392 558.681,62.542 558.746,63.712 C558.831,65.233 558.425,66.675 557.499,67.969 C556.443,69.378 554.933,70.247 553.17,70.499 C551.934,70.676 550.677,70.646 549.412,70.416 L549.232,70.378 C542.834,68.863 536.967,66.985 531.631,64.74 C525.377,62 528.941,63.627 520.991,59.744 L521.444,64.178 C521.815,67.963 522.164,71.952 522.493,76.144 L522.504,76.281 L522.504,76.418 C522.504,78.924 521.025,80.979 518.475,81.404 C517.319,81.596 516.099,81.566 514.82,81.333 C513.552,81.103 512.371,80.69 511.294,80.091 C509.92,79.328 508.92,78.419 508.394,77.104 L508.23,76.695 L508.173,76.257 C507.682,72.492 507.171,68.523 506.639,64.349 C506.111,60.207 505.522,56.003 504.872,51.737 C504.222,47.469 503.531,43.242 502.799,39.055 C502.066,34.862 501.334,30.853 500.595,26.997 C500.284,25.287 500.63,23.523 501.5,21.721 C502.629,19.383 504.773,18.022 507.475,17.738 L507.658,17.718 L507.841,17.718 z" fill="url(#Gradient_11)"/>
        <path d="M507.841,17.718 C509.001,17.719 510.122,18.009 511.157,18.566 C511.992,19.016 512.757,19.589 513.444,20.277 C514.119,20.952 514.67,21.664 515.085,22.425 C515.461,23.116 515.736,23.767 515.898,24.418 L515.94,24.586 L515.965,24.757 C516.371,27.518 516.818,30.381 517.306,33.347 L518.006,37.771 C521.304,35.733 518.857,37.236 525.396,33.346 C529.661,30.854 533.669,28.839 537.428,27.302 L537.66,27.206 L537.904,27.145 C538.646,26.96 539.433,26.923 540.31,26.99 C541.162,27.056 542.018,27.246 542.874,27.552 C543.799,27.882 544.631,28.333 545.355,28.912 C546.289,29.659 546.97,30.632 547.348,31.765 L547.393,31.91 C547.819,33.4 547.572,34.921 546.869,36.537 C546.291,37.873 545.413,39.156 544.065,39.805 L544.074,39.82 C543.098,40.39 541.815,41.143 540.224,42.081 C538.641,43.015 536.976,44.01 535.228,45.067 C532.129,46.963 533.506,46.108 531.091,47.62 C536.82,50.344 534.168,49.168 539.021,51.215 C543.304,52.944 547.85,54.361 552.661,55.465 L552.658,55.478 C553.934,55.675 554.953,56.494 555.886,57.322 C556.727,58.163 557.399,59.155 557.898,60.277 C558.394,61.392 558.681,62.542 558.746,63.712 C558.831,65.233 558.425,66.675 557.499,67.969 C556.443,69.378 554.933,70.247 553.17,70.499 C551.934,70.676 550.677,70.646 549.412,70.416 L549.232,70.378 C542.834,68.863 536.967,66.985 531.631,64.74 C525.377,62 528.941,63.627 520.991,59.744 L521.444,64.178 C521.815,67.963 522.164,71.952 522.493,76.144 L522.504,76.281 L522.504,76.418 C522.504,78.924 521.025,80.979 518.475,81.404 C517.319,81.596 516.099,81.566 514.82,81.333 C513.552,81.103 512.371,80.69 511.294,80.091 C509.92,79.328 508.92,78.419 508.394,77.104 L508.23,76.695 L508.173,76.257 C507.682,72.492 507.171,68.523 506.639,64.349 C506.111,60.207 505.522,56.003 504.872,51.737 C504.222,47.469 503.531,43.242 502.799,39.055 C502.066,34.862 501.334,30.853 500.595,26.997 C500.284,25.287 500.63,23.523 501.5,21.721 C502.629,19.383 504.773,18.022 507.475,17.738 L507.658,17.718 L507.841,17.718 z" fill-opacity="0" stroke="#000000" stroke-width="1"/>
      </g>
    </g>
  </g>
</svg>
