<?xml version="1.0" encoding="UTF-8"?>
<!DOCTYPE svg PUBLIC "-//W3C//DTD SVG 1.1//EN" "http://www.w3.org/Graphics/SVG/1.1/DTD/svg11.dtd">
<svg version="1.1" xmlns="http://www.w3.org/2000/svg" xmlns:xlink="http://www.w3.org/1999/xlink" x="0" y="0" width="100" height="75" viewBox="0, 0, 100, 75">
  <defs>
    <clipPath id="Clip_1">
      <path d="M43.919,27.51 C48.698,27.513 52.978,29.432 56.436,32.653 C58.175,32.407 57.266,32.497 59.166,32.403 C61.723,32.342 64.157,33.123 66.443,34.193 C67.94,34.038 67.169,34.094 68.757,34.035 C77.576,34.034 84.748,40.187 84.747,47.812 C84.686,52.536 82.016,56.202 78.291,58.842 C76.338,65.281 70.515,69.144 63.961,69.417 C61.011,69.195 62.439,69.415 59.673,68.783 C55.236,71.354 50.171,72.199 45.117,72.352 C40.874,72.406 37.278,71.525 33.327,70.13 C31.067,70.394 32.219,70.302 29.871,70.396 C18.687,70.395 9.6,62.562 9.6,52.867 C9.91,42.234 19.401,35.972 29.228,35.366 C32.538,30.194 37.989,27.885 43.918,27.51 L43.919,27.51 z"/>
    </clipPath>
    <filter id="Shadow_2">
      <feGaussianBlur in="SourceAlpha" stdDeviation="2.5"/>
      <feOffset dx="0" dy="0" result="offsetblur"/>
      <feFlood flood-color="#C0C1C2"/>
      <feComposite in2="offsetblur" operator="in"/>
    </filter>
  </defs>
  <g id="Layer_1">
    <g id="path4136">
      <path d="M43.918,27.91 C37.958,27.916 32.447,30.902 29.441,35.753 C18.641,35.954 10.006,43.556 10,52.867 C10,62.327 18.896,69.995 29.871,69.996 C31.045,69.994 32.217,69.902 33.372,69.722 C36.86,71.174 40.942,71.949 45.117,71.952 C50.492,71.948 55.667,70.666 59.616,68.361 C61.022,68.795 62.487,69.016 63.961,69.017 C70.463,69.011 76.173,64.757 77.953,58.592 C81.965,56.078 84.34,52.074 84.347,47.811 C84.348,40.423 77.367,34.434 68.757,34.435 C67.959,34.438 67.163,34.494 66.375,34.602 C64.267,33.434 61.748,32.806 59.165,32.803 C58.201,32.807 57.241,32.899 56.303,33.076 C53.128,29.791 48.633,27.916 43.918,27.91 z" fill="#FFFFFF"/>
      <path d="M43.918,27.91 C37.958,27.916 32.447,30.902 29.441,35.753 C18.641,35.954 10.006,43.556 10,52.867 C10,62.327 18.896,69.995 29.871,69.996 C31.045,69.994 32.217,69.902 33.372,69.722 C36.86,71.174 40.942,71.949 45.117,71.952 C50.492,71.948 55.667,70.666 59.616,68.361 C61.022,68.795 62.487,69.016 63.961,69.017 C70.463,69.011 76.173,64.757 77.953,58.592 C81.965,56.078 84.34,52.074 84.347,47.811 C84.348,40.423 77.367,34.434 68.757,34.435 C67.959,34.438 67.163,34.494 66.375,34.602 C64.267,33.434 61.748,32.806 59.165,32.803 C58.201,32.807 57.241,32.899 56.303,33.076 C53.128,29.791 48.633,27.916 43.918,27.91 z" fill-opacity="0" stroke="#000000" stroke-width="0.8"/>
      <g>
        <path d="M3.6,21.51 L90.747,21.51 L90.747,78.355 L3.6,78.355 z M43.919,27.51 L43.918,27.51 C37.989,27.885 32.538,30.194 29.228,35.366 C19.401,35.972 9.91,42.234 9.6,52.867 C9.6,62.562 18.687,70.395 29.871,70.396 C32.219,70.302 31.067,70.394 33.327,70.13 C37.278,71.525 40.874,72.406 45.117,72.352 C50.171,72.199 55.236,71.354 59.673,68.783 C62.439,69.415 61.011,69.195 63.961,69.417 C70.515,69.144 76.338,65.281 78.291,58.842 C82.016,56.202 84.686,52.536 84.747,47.812 C84.748,40.187 77.576,34.034 68.757,34.035 C67.169,34.094 67.94,34.038 66.443,34.193 C64.157,33.123 61.723,32.342 59.166,32.403 C57.266,32.497 58.175,32.407 56.436,32.653 C52.978,29.432 48.698,27.513 43.919,27.51 z" fill="rgba(0,0,0,0.75)" clip-path="url(#Clip_1)" filter="url(#Shadow_2)"/>
        <path d="M3.6,22.76 L90.747,22.76 L89.497,21.51 L89.497,78.355 L90.747,77.105 L3.6,77.105 L4.85,78.355 L4.85,21.51 L3.6,22.76 z M3.6,20.26 C2.91,20.26 2.35,20.819 2.35,21.51 L2.35,78.355 C2.35,79.045 2.91,79.605 3.6,79.605 L90.747,79.605 C91.438,79.605 91.997,79.045 91.997,78.355 L91.997,21.51 C91.997,20.819 91.438,20.26 90.747,20.26 L3.6,20.26 z M43.919,26.26 L43.918,26.26 C37.037,26.693 31.508,29.483 28.175,34.692 L29.151,34.118 C17.749,34.822 8.66,42.24 8.351,52.831 C8.35,63.288 18.024,71.645 29.871,71.646 C30.267,71.631 31.522,71.589 31.726,71.573 C31.945,71.557 33.347,71.386 33.472,71.371 L32.911,71.308 C37.504,72.931 41.088,73.654 45.133,73.602 C51.157,73.419 56.074,72.313 60.3,69.864 L59.394,70.001 C59.462,70.017 61.271,70.448 61.569,70.491 C61.841,70.53 63.424,70.63 63.867,70.663 L64.013,70.666 C71.309,70.362 77.434,65.974 79.487,59.205 L79.014,59.862 C83.393,56.759 85.935,52.666 85.997,47.828 C85.998,39.461 78.238,32.784 68.757,32.785 C68.446,32.795 67.621,32.821 67.483,32.831 C67.326,32.841 66.318,32.95 66.314,32.95 L66.973,33.061 C64.191,31.759 61.676,31.093 59.136,31.154 C58.748,31.172 57.794,31.212 57.631,31.226 C57.436,31.243 56.138,31.433 56.261,31.416 L57.288,31.739 C53.489,28.2 48.883,26.263 43.92,26.26 z M43.918,28.76 C48.228,28.763 52.234,30.447 55.584,33.568 C55.86,33.825 56.237,33.944 56.611,33.891 C56.64,33.887 57.739,33.726 57.85,33.717 C57.945,33.708 58.805,33.673 59.227,33.652 C61.297,33.603 63.452,34.173 65.913,35.325 C66.118,35.422 66.346,35.46 66.572,35.437 C66.67,35.426 67.552,35.332 67.649,35.325 C67.737,35.319 68.485,35.296 68.804,35.284 C76.934,35.284 83.498,40.932 83.497,47.812 C83.446,51.759 81.341,55.149 77.568,57.823 C77.342,57.983 77.175,58.214 77.095,58.48 C75.362,64.194 70.179,67.907 63.909,68.168 L64.055,68.17 C63.483,68.127 62.082,68.039 61.927,68.017 C61.759,67.992 60.213,67.624 59.951,67.564 C59.643,67.494 59.32,67.543 59.046,67.701 C55.229,69.913 50.701,70.932 45.079,71.103 C41.385,71.15 38.081,70.483 33.743,68.951 C33.564,68.888 33.372,68.866 33.182,68.888 C32.961,68.914 31.69,69.069 31.537,69.08 C31.394,69.091 30.237,69.13 29.821,69.147 C19.33,69.145 10.85,61.819 10.85,52.867 C11.117,43.748 19.087,37.244 29.305,36.613 C29.703,36.589 30.066,36.375 30.281,36.039 C33.148,31.558 37.938,29.141 43.997,28.757 L43.919,28.76 z" fill="rgba(0,0,0,0.75)" clip-path="url(#Clip_1)" filter="url(#Shadow_2)"/>
      </g>
    </g>
    <g id="path4149">
      <path d="M96.447,54.122 C93.882,59.82 85.369,61.542 77.433,57.969 C69.498,54.396 65.144,46.881 67.709,41.183 C70.275,35.486 78.787,33.763 86.723,37.337 C94.659,40.91 99.013,48.425 96.447,54.122 z" fill="#000000"/>
      <path d="M96.447,54.122 C93.882,59.82 85.369,61.542 77.433,57.969 C69.498,54.396 65.144,46.881 67.709,41.183 C70.275,35.486 78.787,33.763 86.723,37.337 C94.659,40.91 99.013,48.425 96.447,54.122 z" fill-opacity="0" stroke="#000000" stroke-width="0.8"/>
    </g>
    <g id="path4151">
      <path d="M75.554,40.185 C75.075,41.315 72.271,41.207 69.292,39.945 C66.313,38.682 64.286,36.742 64.765,35.612 C65.244,34.482 68.048,34.589 71.027,35.852 C74.006,37.115 76.033,39.055 75.554,40.185 z" fill="#000000"/>
      <path d="M75.554,40.185 C75.075,41.315 72.271,41.207 69.292,39.945 C66.313,38.682 64.286,36.742 64.765,35.612 C65.244,34.482 68.048,34.589 71.027,35.852 C74.006,37.115 76.033,39.055 75.554,40.185 z" fill-opacity="0" stroke="#000000" stroke-width="0.8"/>
    </g>
    <g id="ellipse4153">
      <path d="M76.465,42.89 C75.285,42.556 75.042,39.761 75.924,36.648 C76.806,33.534 78.478,31.282 79.659,31.616 C80.84,31.951 81.082,34.746 80.2,37.859 C79.319,40.972 77.646,43.225 76.465,42.89 z" fill="#000000"/>
      <path d="M76.465,42.89 C75.285,42.556 75.042,39.761 75.924,36.648 C76.806,33.534 78.478,31.282 79.659,31.616 C80.84,31.951 81.082,34.746 80.2,37.859 C79.319,40.972 77.646,43.225 76.465,42.89 z" fill-opacity="0" stroke="#000000" stroke-width="0.8"/>
    </g>
    <g id="ellipse4153">
      <path d="M4.549,55.675 C3.506,55.028 4.043,52.275 5.748,49.525 C7.453,46.775 9.681,45.07 10.725,45.717 C11.768,46.364 11.231,49.117 9.525,51.867 C7.82,54.617 5.592,56.322 4.549,55.675 z" fill="#000000"/>
      <path d="M4.549,55.675 C3.506,55.028 4.043,52.275 5.748,49.525 C7.453,46.775 9.681,45.07 10.725,45.717 C11.768,46.364 11.231,49.117 9.525,51.867 C7.82,54.617 5.592,56.322 4.549,55.675 z" fill-opacity="0" stroke="#000000" stroke-width="0.8"/>
    </g>
    <path d="M65.359,69.19 L70.038,69.937 L66.512,72.728" fill-opacity="0" stroke="#000000" stroke-width="3" stroke-linecap="round"/>
    <path d="M66.633,65.793 L70.038,69.937 L62.252,72.287" fill-opacity="0" stroke="#000000" stroke-width="3" stroke-linecap="round"/>
    <path d="M25.876,67.492 L18.476,70.965 L22.589,72.14" fill-opacity="0" stroke="#000000" stroke-width="3" stroke-linecap="round"/>
    <path d="M26.017,69.473 L21.854,70.231 L28.171,72.434" fill-opacity="0" stroke="#000000" stroke-width="3" stroke-linecap="round"/>
    <path d="M75.43,43.708 C76.014,44.426 76.775,44.665 77.657,44.745 C78.196,44.701 78.804,44.677 79.24,44.287 L79.261,44.393 C79.243,45.395 78.331,46.19 77.224,46.17 C76.117,46.149 75.235,45.321 75.253,44.32 C75.365,43.794 75.275,43.987 75.43,43.708 z" fill="#044192"/>
  </g>
</svg>
