<?xml version="1.0" encoding="UTF-8"?>
<!DOCTYPE svg PUBLIC "-//W3C//DTD SVG 1.1//EN" "http://www.w3.org/Graphics/SVG/1.1/DTD/svg11.dtd">
<svg version="1.1" xmlns="http://www.w3.org/2000/svg" xmlns:xlink="http://www.w3.org/1999/xlink" x="0" y="0" width="100" height="75" viewBox="0, 0, 100, 75">
  <defs>
    <clipPath id="Clip_1">
      <path d="M43.919,11.51 C48.698,11.513 52.978,13.432 56.436,16.653 C58.175,16.407 57.266,16.497 59.166,16.403 C61.723,16.342 64.157,17.123 66.443,18.193 C67.94,18.038 67.169,18.094 68.757,18.035 C77.576,18.034 84.748,24.187 84.747,31.812 C84.686,36.536 82.016,40.202 78.291,42.842 C76.338,49.281 70.515,53.144 63.961,53.417 C61.011,53.195 62.439,53.415 59.673,52.783 C55.236,55.354 50.171,56.199 45.117,56.352 C40.874,56.406 37.278,55.525 33.327,54.13 C31.067,54.394 32.219,54.302 29.871,54.396 C18.687,54.395 9.6,46.562 9.6,36.867 C9.91,26.234 19.401,19.972 29.228,19.366 C32.538,14.194 37.989,11.885 43.918,11.51 L43.919,11.51 z"/>
    </clipPath>
    <filter id="Shadow_2">
      <feGaussianBlur in="SourceAlpha" stdDeviation="2.5"/>
      <feOffset dx="0" dy="0" result="offsetblur"/>
      <feFlood flood-color="#C0C1C2"/>
      <feComposite in2="offsetblur" operator="in"/>
    </filter>
  </defs>
  <g id="Layer_1">
    <g id="path4136">
      <path d="M43.918,11.91 C37.958,11.916 32.447,14.902 29.441,19.753 C18.641,19.954 10.006,27.556 10,36.867 C10,46.327 18.896,53.995 29.871,53.996 C31.045,53.994 32.217,53.902 33.372,53.722 C36.86,55.174 40.942,55.949 45.117,55.952 C50.492,55.948 55.667,54.666 59.616,52.361 C61.022,52.795 62.487,53.016 63.961,53.017 C70.463,53.011 76.173,48.757 77.953,42.592 C81.965,40.078 84.34,36.074 84.347,31.811 C84.348,24.423 77.367,18.434 68.757,18.435 C67.959,18.438 67.163,18.494 66.375,18.602 C64.267,17.434 61.748,16.806 59.165,16.803 C58.201,16.807 57.241,16.899 56.303,17.076 C53.128,13.791 48.633,11.916 43.918,11.91 z" fill="#FFFFFF"/>
      <path d="M43.918,11.91 C37.958,11.916 32.447,14.902 29.441,19.753 C18.641,19.954 10.006,27.556 10,36.867 C10,46.327 18.896,53.995 29.871,53.996 C31.045,53.994 32.217,53.902 33.372,53.722 C36.86,55.174 40.942,55.949 45.117,55.952 C50.492,55.948 55.667,54.666 59.616,52.361 C61.022,52.795 62.487,53.016 63.961,53.017 C70.463,53.011 76.173,48.757 77.953,42.592 C81.965,40.078 84.34,36.074 84.347,31.811 C84.348,24.423 77.367,18.434 68.757,18.435 C67.959,18.438 67.163,18.494 66.375,18.602 C64.267,17.434 61.748,16.806 59.165,16.803 C58.201,16.807 57.241,16.899 56.303,17.076 C53.128,13.791 48.633,11.916 43.918,11.91 z" fill-opacity="0" stroke="#000000" stroke-width="0.8"/>
      <g>
        <path d="M3.6,5.51 L90.747,5.51 L90.747,62.355 L3.6,62.355 z M43.919,11.51 L43.918,11.51 C37.989,11.885 32.538,14.194 29.228,19.366 C19.401,19.972 9.91,26.234 9.6,36.867 C9.6,46.562 18.687,54.395 29.871,54.396 C32.219,54.302 31.067,54.394 33.327,54.13 C37.278,55.525 40.874,56.406 45.117,56.352 C50.171,56.199 55.236,55.354 59.673,52.783 C62.439,53.415 61.011,53.195 63.961,53.417 C70.515,53.144 76.338,49.281 78.291,42.842 C82.016,40.202 84.686,36.536 84.747,31.812 C84.748,24.187 77.576,18.034 68.757,18.035 C67.169,18.094 67.94,18.038 66.443,18.193 C64.157,17.123 61.723,16.342 59.166,16.403 C57.266,16.497 58.175,16.407 56.436,16.653 C52.978,13.432 48.698,11.513 43.919,11.51 z" fill="rgba(0,0,0,0.75)" clip-path="url(#Clip_1)" filter="url(#Shadow_2)"/>
        <path d="M3.6,6.76 L90.747,6.76 L89.497,5.51 L89.497,62.355 L90.747,61.105 L3.6,61.105 L4.85,62.355 L4.85,5.51 L3.6,6.76 z M3.6,4.26 C2.91,4.26 2.35,4.819 2.35,5.51 L2.35,62.355 C2.35,63.045 2.91,63.605 3.6,63.605 L90.747,63.605 C91.438,63.605 91.997,63.045 91.997,62.355 L91.997,5.51 C91.997,4.819 91.438,4.26 90.747,4.26 L3.6,4.26 z M43.919,10.26 L43.918,10.26 C37.037,10.693 31.508,13.483 28.175,18.692 L29.151,18.118 C17.749,18.822 8.66,26.24 8.351,36.831 C8.35,47.288 18.024,55.645 29.871,55.646 C30.267,55.631 31.522,55.589 31.726,55.573 C31.945,55.557 33.347,55.386 33.472,55.371 L32.911,55.308 C37.504,56.931 41.088,57.654 45.133,57.602 C51.157,57.419 56.074,56.313 60.3,53.864 L59.394,54.001 C59.462,54.017 61.271,54.448 61.569,54.491 C61.841,54.53 63.424,54.63 63.867,54.663 L64.013,54.666 C71.309,54.362 77.434,49.974 79.487,43.205 L79.014,43.862 C83.393,40.759 85.935,36.666 85.997,31.828 C85.998,23.461 78.238,16.784 68.757,16.785 C68.446,16.795 67.621,16.821 67.483,16.831 C67.326,16.841 66.318,16.95 66.314,16.95 L66.973,17.061 C64.191,15.759 61.676,15.093 59.136,15.154 C58.748,15.172 57.794,15.212 57.631,15.226 C57.436,15.243 56.138,15.433 56.261,15.416 L57.288,15.739 C53.489,12.2 48.883,10.263 43.92,10.26 z M43.918,12.76 C48.228,12.763 52.234,14.447 55.584,17.568 C55.86,17.825 56.237,17.944 56.611,17.891 C56.64,17.887 57.739,17.726 57.85,17.717 C57.945,17.708 58.805,17.673 59.227,17.652 C61.297,17.603 63.452,18.173 65.913,19.325 C66.118,19.422 66.346,19.46 66.572,19.437 C66.67,19.426 67.552,19.332 67.649,19.325 C67.737,19.319 68.485,19.296 68.804,19.284 C76.934,19.284 83.498,24.932 83.497,31.812 C83.446,35.759 81.341,39.149 77.568,41.823 C77.342,41.983 77.175,42.214 77.095,42.48 C75.362,48.194 70.179,51.907 63.909,52.168 L64.055,52.17 C63.483,52.127 62.082,52.039 61.927,52.017 C61.759,51.992 60.213,51.624 59.951,51.564 C59.643,51.494 59.32,51.543 59.046,51.701 C55.229,53.913 50.701,54.932 45.079,55.103 C41.385,55.15 38.081,54.483 33.743,52.951 C33.564,52.888 33.372,52.866 33.182,52.888 C32.961,52.914 31.69,53.069 31.537,53.08 C31.394,53.091 30.237,53.13 29.821,53.147 C19.33,53.145 10.85,45.819 10.85,36.867 C11.117,27.748 19.087,21.244 29.305,20.613 C29.703,20.589 30.066,20.375 30.281,20.039 C33.148,15.558 37.938,13.141 43.997,12.757 L43.919,12.76 z" fill="rgba(0,0,0,0.75)" clip-path="url(#Clip_1)" filter="url(#Shadow_2)"/>
      </g>
    </g>
    <g id="path4149">
      <path d="M97.325,31.314 C94.687,36.979 86.153,38.592 78.264,34.917 C70.374,31.243 66.117,23.672 68.755,18.008 C71.394,12.344 79.928,10.731 87.817,14.405 C95.706,18.08 99.963,25.65 97.325,31.314 z" fill="#000000"/>
      <path d="M97.325,31.314 C94.687,36.979 86.153,38.592 78.264,34.917 C70.374,31.243 66.117,23.672 68.755,18.008 C71.394,12.344 79.928,10.731 87.817,14.405 C95.706,18.08 99.963,25.65 97.325,31.314 z" fill-opacity="0" stroke="#000000" stroke-width="0.8"/>
    </g>
    <g id="path4151">
      <path d="M74.073,17.202 C73.139,17.998 70.68,16.647 68.582,14.184 C66.483,11.721 65.539,9.079 66.473,8.283 C67.407,7.487 69.866,8.838 71.965,11.301 C74.063,13.764 75.007,16.406 74.073,17.202 z" fill="#000000"/>
      <path d="M74.073,17.202 C73.139,17.998 70.68,16.647 68.582,14.184 C66.483,11.721 65.539,9.079 66.473,8.283 C67.407,7.487 69.866,8.838 71.965,11.301 C74.063,13.764 75.007,16.406 74.073,17.202 z" fill-opacity="0" stroke="#000000" stroke-width="0.8"/>
    </g>
    <g id="ellipse4153">
      <path d="M79.869,18.03 C78.65,18.174 77.355,15.685 76.976,12.471 C76.598,9.258 77.279,6.536 78.498,6.393 C79.717,6.249 81.012,8.738 81.39,11.951 C81.769,15.165 81.088,17.886 79.869,18.03 z" fill="#000000"/>
      <path d="M79.869,18.03 C78.65,18.174 77.355,15.685 76.976,12.471 C76.598,9.258 77.279,6.536 78.498,6.393 C79.717,6.249 81.012,8.738 81.39,11.951 C81.769,15.165 81.088,17.886 79.869,18.03 z" fill-opacity="0" stroke="#000000" stroke-width="0.8"/>
    </g>
    <g id="ellipse4153">
      <path d="M3.09,38.36 C2.113,37.617 2.909,34.926 4.868,32.351 C6.827,29.775 9.206,28.29 10.183,29.032 C11.16,29.775 10.364,32.466 8.406,35.041 C6.447,37.617 4.067,39.103 3.09,38.36 z" fill="#000000"/>
      <path d="M3.09,38.36 C2.113,37.617 2.909,34.926 4.868,32.351 C6.827,29.775 9.206,28.29 10.183,29.032 C11.16,29.775 10.364,32.466 8.406,35.041 C6.447,37.617 4.067,39.103 3.09,38.36 z" fill-opacity="0" stroke="#000000" stroke-width="0.8"/>
    </g>
    <path d="M63.961,53.017 L60.768,70.225" fill-opacity="0" stroke="#000000" stroke-width="3" stroke-linecap="round"/>
    <path d="M66.768,49.225 L76.5,71.5" fill-opacity="0" stroke="#000000" stroke-width="3" stroke-linecap="round"/>
    <path d="M27.5,49.5 L35,71.5" fill-opacity="0" stroke="#000000" stroke-width="3" stroke-linecap="round"/>
    <path d="M25.5,53.292 L22.306,70.5" fill-opacity="0" stroke="#000000" stroke-width="3" stroke-linecap="round"/>
    <path d="M78.199,23.122 C77.093,23.088 76.221,22.249 76.252,21.248 C76.283,20.247 77.205,19.463 78.312,19.498 C79.419,19.532 80.29,20.372 80.259,21.373 C80.228,22.373 79.306,23.157 78.199,23.122 z" fill="#044192"/>
  </g>
</svg>
