<?xml version="1.0" encoding="UTF-8"?>
<!DOCTYPE svg PUBLIC "-//W3C//DTD SVG 1.1//EN" "http://www.w3.org/Graphics/SVG/1.1/DTD/svg11.dtd">
<svg version="1.1" xmlns="http://www.w3.org/2000/svg" xmlns:xlink="http://www.w3.org/1999/xlink" x="0" y="0" width="100" height="75" viewBox="0, 0, 100, 75">
  <defs>
    <clipPath id="Clip_1">
      <path d="M44.173,30.426 C48.75,30.345 52.984,31.635 56.366,34.756 C58.107,34.51 57.197,34.6 59.097,34.506 C61.856,34.621 61.942,34.51 65.159,35.368 C65.673,35.505 66.132,35.799 66.618,36.014 C68.122,35.858 67.348,35.913 68.939,35.854 C77.687,35.854 84.748,42.126 84.747,49.812 C84.686,54.536 82.016,58.202 78.291,60.842 C76.338,67.281 70.515,71.144 63.961,71.417 C61.011,71.195 62.439,71.415 59.672,70.783 C55.699,73.063 51.004,72.875 46.574,72.902 C46.056,72.901 45.819,72.901 45.525,72.901 C44.697,72.901 44.005,72.92 42.508,72.977 L42.472,72.978 C39.385,73.121 36.257,73.226 33.323,72.13 C31.067,72.394 32.217,72.302 29.871,72.396 C18.687,72.395 9.6,64.562 9.6,54.867 C9.957,44.176 19.679,37.891 29.535,37.278 C32.819,32.179 38.463,30.692 44.172,30.426 L44.173,30.426 z"/>
    </clipPath>
    <filter id="Shadow_2">
      <feGaussianBlur in="SourceAlpha" stdDeviation="2.5"/>
      <feOffset dx="0" dy="0" result="offsetblur"/>
      <feFlood flood-color="#C0C1C2"/>
      <feComposite in2="offsetblur" operator="in"/>
    </filter>
  </defs>
  <g id="Layer_1">
    <g id="path4136">
      <path d="M44.172,30.826 C38.211,30.832 32.753,32.814 29.746,37.665 C18.946,37.867 10.006,45.556 10,54.867 C10,64.327 18.896,71.995 29.871,71.996 C31.045,71.994 32.217,71.902 33.372,71.722 C36.86,73.174 41.35,72.498 45.526,72.501 C50.9,72.497 55.667,72.666 59.616,70.361 C61.022,70.795 62.487,71.016 63.961,71.017 C70.463,71.011 76.173,66.757 77.953,60.592 C81.965,58.078 84.34,54.074 84.347,49.811 C84.348,42.423 77.549,36.254 68.939,36.254 C68.141,36.258 67.345,36.314 66.557,36.422 C64.448,35.254 61.68,34.908 59.097,34.906 C58.133,34.91 57.172,35.001 56.235,35.178 C53.059,31.894 48.887,30.832 44.172,30.826 z" fill="#FFFFFF"/>
      <path d="M44.172,30.826 C38.211,30.832 32.753,32.814 29.746,37.665 C18.946,37.867 10.006,45.556 10,54.867 C10,64.327 18.896,71.995 29.871,71.996 C31.045,71.994 32.217,71.902 33.372,71.722 C36.86,73.174 41.35,72.498 45.526,72.501 C50.9,72.497 55.667,72.666 59.616,70.361 C61.022,70.795 62.487,71.016 63.961,71.017 C70.463,71.011 76.173,66.757 77.953,60.592 C81.965,58.078 84.34,54.074 84.347,49.811 C84.348,42.423 77.549,36.254 68.939,36.254 C68.141,36.258 67.345,36.314 66.557,36.422 C64.448,35.254 61.68,34.908 59.097,34.906 C58.133,34.91 57.172,35.001 56.235,35.178 C53.059,31.894 48.887,30.832 44.172,30.826 z" fill-opacity="0" stroke="#000000" stroke-width="0.8"/>
      <g>
        <path d="M3.6,24.422 L90.747,24.422 L90.747,79.065 L3.6,79.065 z M44.173,30.426 L44.172,30.426 C38.463,30.692 32.819,32.179 29.535,37.278 C19.679,37.891 9.957,44.176 9.6,54.867 C9.6,64.562 18.687,72.395 29.871,72.396 C32.217,72.302 31.067,72.394 33.323,72.13 C36.257,73.226 39.385,73.121 42.472,72.978 L42.508,72.977 C44.005,72.92 44.697,72.901 45.525,72.901 C45.819,72.901 46.056,72.901 46.574,72.902 C51.004,72.875 55.699,73.063 59.672,70.783 C62.439,71.415 61.011,71.195 63.961,71.417 C70.515,71.144 76.338,67.281 78.291,60.842 C82.016,58.202 84.686,54.536 84.747,49.812 C84.748,42.126 77.687,35.854 68.939,35.854 C67.348,35.913 68.122,35.858 66.618,36.014 C66.132,35.799 65.673,35.505 65.159,35.368 C61.942,34.51 61.856,34.621 59.097,34.506 C57.197,34.6 58.107,34.51 56.366,34.756 C52.984,31.635 48.75,30.345 44.173,30.426 z" fill="rgba(0,0,0,0.75)" clip-path="url(#Clip_1)" filter="url(#Shadow_2)"/>
        <path d="M3.6,25.672 L90.747,25.672 L89.497,24.422 L89.497,79.065 L90.747,77.815 L3.6,77.815 L4.85,79.065 L4.85,24.422 L3.6,25.672 z M3.6,23.172 C2.91,23.172 2.35,23.732 2.35,24.422 L2.35,79.065 C2.35,79.756 2.91,80.315 3.6,80.315 L90.747,80.315 C91.438,80.315 91.997,79.756 91.997,79.065 L91.997,24.422 C91.997,23.732 91.438,23.172 90.747,23.172 L3.6,23.172 z M44.173,29.176 L44.172,29.176 C36.898,29.514 31.663,31.666 28.484,36.601 L29.457,36.031 C17.976,36.744 8.706,44.207 8.351,54.825 C8.35,65.288 18.024,73.645 29.871,73.646 C30.271,73.631 31.521,73.589 31.725,73.573 C31.944,73.557 33.348,73.386 33.468,73.372 L32.885,73.301 C35.557,74.299 37.898,74.441 42.53,74.227 L42.556,74.226 C44.109,74.167 44.749,74.151 45.524,74.151 C45.806,74.151 46.027,74.151 46.573,74.152 C46.877,74.15 47.115,74.149 47.65,74.148 C48.922,74.145 49.492,74.141 50.208,74.124 C54.531,74.024 57.535,73.451 60.295,71.867 L59.394,72.001 C59.462,72.017 61.271,72.448 61.569,72.491 C61.841,72.53 63.425,72.63 63.867,72.663 L64.013,72.666 C71.309,72.362 77.434,67.974 79.487,61.205 L79.014,61.862 C83.393,58.759 85.935,54.666 85.997,49.828 C85.998,41.386 78.33,34.604 68.939,34.604 C68.631,34.615 67.802,34.641 67.662,34.65 C67.506,34.661 66.503,34.769 66.489,34.77 L66.618,36.014 L67.124,34.87 C67.015,34.822 66.921,34.776 66.701,34.665 C66.147,34.385 65.878,34.267 65.481,34.161 C63.664,33.675 62.8,33.488 61.905,33.395 C61.501,33.352 61.123,33.33 60.463,33.306 C60.344,33.302 60.176,33.296 59.859,33.284 C59.597,33.275 59.378,33.266 59.149,33.257 L59.035,33.257 C58.681,33.275 57.725,33.314 57.562,33.329 C57.368,33.346 56.07,33.536 56.191,33.518 L57.214,33.838 C53.72,30.613 49.256,29.086 44.15,29.176 z M44.195,31.676 C48.685,31.596 52.522,32.909 55.519,35.675 C55.794,35.929 56.17,36.046 56.541,35.994 C56.573,35.989 57.67,35.829 57.781,35.819 C57.877,35.811 58.737,35.775 59.159,35.754 L59.045,35.755 C59.279,35.765 59.503,35.773 59.769,35.783 C60.088,35.794 60.254,35.8 60.371,35.804 C60.978,35.827 61.311,35.846 61.644,35.881 C62.377,35.958 63.136,36.122 64.837,36.576 C65.011,36.622 65.174,36.695 65.574,36.897 C65.832,37.027 65.952,37.086 66.113,37.157 C66.312,37.245 66.531,37.279 66.747,37.257 C66.854,37.246 67.732,37.151 67.83,37.145 C67.918,37.139 68.67,37.115 68.985,37.103 C77.013,37.104 83.498,42.839 83.497,49.812 C83.446,53.759 81.341,57.149 77.568,59.823 C77.342,59.983 77.175,60.214 77.095,60.48 C75.362,66.194 70.179,69.907 63.909,70.168 L64.055,70.17 C63.483,70.127 62.082,70.039 61.927,70.017 C61.759,69.992 60.213,69.624 59.951,69.564 C59.644,69.494 59.323,69.542 59.05,69.699 C56.73,71.03 54.093,71.533 50.15,71.625 C49.457,71.641 48.899,71.645 47.644,71.648 C47.106,71.649 46.866,71.65 46.566,71.652 C46.028,71.651 45.806,71.651 45.524,71.651 C44.712,71.651 44.044,71.668 42.461,71.727 L42.424,71.729 C38.11,71.928 36.016,71.802 33.76,70.959 C33.574,70.89 33.375,70.866 33.178,70.889 C32.962,70.914 31.689,71.069 31.536,71.08 C31.394,71.091 30.24,71.13 29.821,71.147 C19.33,71.145 10.85,63.819 10.85,54.867 C11.156,45.728 19.307,39.166 29.612,38.526 C30.009,38.501 30.37,38.289 30.586,37.955 C33.246,33.826 37.742,31.977 44.23,31.674 L44.173,31.676 z" fill="rgba(0,0,0,0.75)" clip-path="url(#Clip_1)" filter="url(#Shadow_2)"/>
      </g>
    </g>
    <g id="path4149">
      <path d="M96.447,59.122 C93.882,64.82 85.369,66.542 77.433,62.969 C69.498,59.396 65.144,51.881 67.709,46.183 C70.275,40.486 78.787,38.763 86.723,42.337 C94.659,45.91 99.013,53.425 96.447,59.122 z" fill="#000000"/>
      <path d="M96.447,59.122 C93.882,64.82 85.369,66.542 77.433,62.969 C69.498,59.396 65.144,51.881 67.709,46.183 C70.275,40.486 78.787,38.763 86.723,42.337 C94.659,45.91 99.013,53.425 96.447,59.122 z" fill-opacity="0" stroke="#000000" stroke-width="0.8"/>
    </g>
    <g id="path4151">
      <path d="M75.554,45.185 C75.075,46.315 72.271,46.207 69.292,44.945 C66.313,43.682 64.286,41.742 64.765,40.612 C65.244,39.482 68.048,39.589 71.027,40.852 C74.006,42.115 76.033,44.055 75.554,45.185 z" fill="#000000"/>
      <path d="M75.554,45.185 C75.075,46.315 72.271,46.207 69.292,44.945 C66.313,43.682 64.286,41.742 64.765,40.612 C65.244,39.482 68.048,39.589 71.027,40.852 C74.006,42.115 76.033,44.055 75.554,45.185 z" fill-opacity="0" stroke="#000000" stroke-width="0.8"/>
    </g>
    <g id="ellipse4153">
      <path d="M76.465,47.89 C75.285,47.556 75.042,44.761 75.924,41.648 C76.806,38.534 78.478,36.282 79.659,36.616 C80.84,36.951 81.082,39.746 80.2,42.859 C79.319,45.972 77.646,48.225 76.465,47.89 z" fill="#000000"/>
      <path d="M76.465,47.89 C75.285,47.556 75.042,44.761 75.924,41.648 C76.806,38.534 78.478,36.282 79.659,36.616 C80.84,36.951 81.082,39.746 80.2,42.859 C79.319,45.972 77.646,48.225 76.465,47.89 z" fill-opacity="0" stroke="#000000" stroke-width="0.8"/>
    </g>
    <g id="ellipse4153">
      <path d="M4.549,57.675 C3.506,57.028 4.043,54.275 5.748,51.525 C7.453,48.775 9.681,47.07 10.725,47.717 C11.768,48.364 11.231,51.117 9.525,53.867 C7.82,56.617 5.592,58.322 4.549,57.675 z" fill="#000000"/>
      <path d="M4.549,57.675 C3.506,57.028 4.043,54.275 5.748,51.525 C7.453,48.775 9.681,47.07 10.725,47.717 C11.768,48.364 11.231,51.117 9.525,53.867 C7.82,56.617 5.592,58.322 4.549,57.675 z" fill-opacity="0" stroke="#000000" stroke-width="0.8"/>
    </g>
    <path d="M65.359,71.19 L67.537,71.382 L62.936,72.128" fill-opacity="0" stroke="#000000" stroke-width="3" stroke-linecap="round"/>
    <path d="M66.633,67.793 L67.662,70.76 L60.946,71.88" fill-opacity="0" stroke="#000000" stroke-width="3" stroke-linecap="round"/>
    <path d="M25.876,69.492 L18.913,70.885 L23.763,72.004" fill-opacity="0" stroke="#000000" stroke-width="3" stroke-linecap="round"/>
    <path d="M26.017,71.473 L21.773,71.631 L26.996,72.377" fill-opacity="0" stroke="#000000" stroke-width="3" stroke-linecap="round"/>
    <path d="M75.403,48.757 C75.656,49.77 76.377,50.371 77.397,50.492 C78.112,50.441 78.927,50.049 79.189,49.32 L79.24,49.287 L79.261,49.393 C79.243,50.395 78.331,51.19 77.224,51.17 C76.117,51.149 75.235,50.321 75.253,49.32 C75.293,49.127 75.306,48.93 75.403,48.757 z" fill="#044192"/>
    <path d="M64.227,74.284" fill-opacity="0" stroke="#000000" stroke-width="3"/>
    <path d="M63.237,73.954" fill-opacity="0" stroke="#000000" stroke-width="3"/>
    <path d="M93.333,27.405 C93.333,27.165 93.213,27.034 92.996,27.034 C92.963,27.034 92.854,27.089 92.658,27.198 C92.451,27.307 92.08,27.416 91.558,27.503 C91.078,27.59 90.697,27.634 90.425,27.634 C90.011,27.634 89.815,27.536 89.815,27.329 C89.815,27.1 90.076,26.74 90.61,26.25 C90.839,26.043 91.285,25.684 91.939,25.161 C92.255,24.899 92.418,24.692 92.418,24.529 C92.418,24.278 92.189,24.093 91.732,23.962 C91.405,23.875 91.046,23.821 90.664,23.821 C89.924,23.821 89.226,23.93 88.562,24.126 C88.366,24.18 88.279,24.3 88.279,24.485 C88.279,24.714 88.377,24.823 88.573,24.823 C88.616,24.823 88.758,24.801 88.976,24.758 C89.804,24.616 90.381,24.54 90.719,24.54 C91.002,24.54 91.274,24.573 91.558,24.638 C89.956,25.858 89.161,26.806 89.161,27.481 C89.161,27.786 89.314,28.004 89.64,28.156 C89.88,28.265 90.185,28.331 90.544,28.331 C90.839,28.331 91.242,28.276 91.754,28.167 C92.255,28.058 92.647,27.949 92.952,27.819 C93.202,27.71 93.333,27.579 93.333,27.405 z" fill="#000000" fill-opacity="0.443"/>
    <path d="M88.254,38.328 C88.254,38.205 88.192,38.138 88.081,38.138 C88.064,38.138 88.008,38.166 87.907,38.222 C87.801,38.277 87.611,38.333 87.343,38.378 C87.098,38.423 86.902,38.445 86.762,38.445 C86.55,38.445 86.45,38.395 86.45,38.289 C86.45,38.171 86.584,37.987 86.857,37.736 C86.975,37.63 87.204,37.445 87.539,37.177 C87.701,37.043 87.785,36.937 87.785,36.853 C87.785,36.725 87.667,36.63 87.433,36.563 C87.265,36.518 87.081,36.49 86.885,36.49 C86.505,36.49 86.148,36.546 85.807,36.646 C85.707,36.674 85.662,36.736 85.662,36.831 C85.662,36.948 85.712,37.004 85.813,37.004 C85.835,37.004 85.908,36.993 86.019,36.97 C86.444,36.898 86.74,36.859 86.913,36.859 C87.058,36.859 87.198,36.875 87.343,36.909 C86.522,37.535 86.114,38.021 86.114,38.367 C86.114,38.523 86.193,38.635 86.36,38.713 C86.483,38.769 86.639,38.803 86.824,38.803 C86.975,38.803 87.181,38.775 87.444,38.719 C87.701,38.663 87.902,38.607 88.058,38.54 C88.187,38.484 88.254,38.417 88.254,38.328 z" fill="#000000"/>
    <path d="M91.179,33.906 C91.179,33.688 91.07,33.569 90.872,33.569 C90.842,33.569 90.743,33.619 90.564,33.718 C90.376,33.817 90.039,33.916 89.563,33.995 C89.126,34.075 88.779,34.114 88.531,34.114 C88.154,34.114 87.976,34.025 87.976,33.837 C87.976,33.628 88.214,33.301 88.7,32.855 C88.908,32.666 89.315,32.339 89.91,31.863 C90.197,31.625 90.346,31.437 90.346,31.288 C90.346,31.06 90.138,30.891 89.721,30.772 C89.424,30.693 89.096,30.643 88.749,30.643 C88.075,30.643 87.44,30.742 86.835,30.921 C86.657,30.97 86.577,31.08 86.577,31.248 C86.577,31.456 86.667,31.556 86.845,31.556 C86.885,31.556 87.014,31.536 87.212,31.496 C87.966,31.367 88.491,31.298 88.799,31.298 C89.057,31.298 89.305,31.328 89.563,31.387 C88.105,32.498 87.381,33.361 87.381,33.976 C87.381,34.253 87.519,34.452 87.817,34.59 C88.035,34.69 88.313,34.749 88.64,34.749 C88.908,34.749 89.275,34.7 89.741,34.6 C90.197,34.501 90.554,34.402 90.832,34.283 C91.06,34.184 91.179,34.065 91.179,33.906 z" fill="#000000"/>
  </g>
</svg>
