<?xml version="1.0" encoding="UTF-8"?>
<!DOCTYPE svg PUBLIC "-//W3C//DTD SVG 1.1//EN" "http://www.w3.org/Graphics/SVG/1.1/DTD/svg11.dtd">
<svg version="1.1" xmlns="http://www.w3.org/2000/svg" xmlns:xlink="http://www.w3.org/1999/xlink" x="0" y="0" width="100" height="75" viewBox="0, 0, 100, 75">
  <defs>
    <clipPath id="Clip_1">
      <path d="M43.919,14.51 C48.698,14.513 52.978,16.432 56.436,19.653 C58.175,19.407 57.266,19.497 59.166,19.403 C61.723,19.342 64.157,20.123 66.443,21.193 C67.94,21.038 67.169,21.094 68.757,21.035 C77.576,21.034 84.748,27.187 84.747,34.812 C84.686,39.536 82.016,43.202 78.291,45.842 C76.338,52.281 70.515,56.144 63.961,56.417 C61.011,56.195 62.439,56.415 59.673,55.783 C55.236,58.354 50.171,59.199 45.117,59.352 C40.874,59.406 37.278,58.525 33.327,57.13 C31.067,57.394 32.219,57.302 29.871,57.396 C18.687,57.395 9.6,49.562 9.6,39.867 C9.91,29.234 19.401,22.972 29.228,22.366 C32.538,17.194 37.989,14.885 43.918,14.51 L43.919,14.51 z"/>
    </clipPath>
    <filter id="Shadow_2">
      <feGaussianBlur in="SourceAlpha" stdDeviation="2.5"/>
      <feOffset dx="0" dy="0" result="offsetblur"/>
      <feFlood flood-color="#C0C1C2"/>
      <feComposite in2="offsetblur" operator="in"/>
    </filter>
  </defs>
  <g id="Layer_1">
    <g id="path4136">
      <path d="M43.918,14.91 C37.958,14.916 32.447,17.902 29.441,22.753 C18.641,22.954 10.006,30.556 10,39.867 C10,49.327 18.896,56.995 29.871,56.996 C31.045,56.994 32.217,56.902 33.372,56.722 C36.86,58.174 40.942,58.949 45.117,58.952 C50.492,58.948 55.667,57.666 59.616,55.361 C61.022,55.795 62.487,56.016 63.961,56.017 C70.463,56.011 76.173,51.757 77.953,45.592 C81.965,43.078 84.34,39.074 84.347,34.811 C84.348,27.423 77.367,21.434 68.757,21.435 C67.959,21.438 67.163,21.494 66.375,21.602 C64.267,20.434 61.748,19.806 59.165,19.803 C58.201,19.807 57.241,19.899 56.303,20.076 C53.128,16.791 48.633,14.916 43.918,14.91 z" fill="#FFFFFF"/>
      <path d="M43.918,14.91 C37.958,14.916 32.447,17.902 29.441,22.753 C18.641,22.954 10.006,30.556 10,39.867 C10,49.327 18.896,56.995 29.871,56.996 C31.045,56.994 32.217,56.902 33.372,56.722 C36.86,58.174 40.942,58.949 45.117,58.952 C50.492,58.948 55.667,57.666 59.616,55.361 C61.022,55.795 62.487,56.016 63.961,56.017 C70.463,56.011 76.173,51.757 77.953,45.592 C81.965,43.078 84.34,39.074 84.347,34.811 C84.348,27.423 77.367,21.434 68.757,21.435 C67.959,21.438 67.163,21.494 66.375,21.602 C64.267,20.434 61.748,19.806 59.165,19.803 C58.201,19.807 57.241,19.899 56.303,20.076 C53.128,16.791 48.633,14.916 43.918,14.91 z" fill-opacity="0" stroke="#000000" stroke-width="0.8"/>
      <g>
        <path d="M3.6,8.51 L90.747,8.51 L90.747,65.355 L3.6,65.355 z M43.919,14.51 L43.918,14.51 C37.989,14.885 32.538,17.194 29.228,22.366 C19.401,22.972 9.91,29.234 9.6,39.867 C9.6,49.562 18.687,57.395 29.871,57.396 C32.219,57.302 31.067,57.394 33.327,57.13 C37.278,58.525 40.874,59.406 45.117,59.352 C50.171,59.199 55.236,58.354 59.673,55.783 C62.439,56.415 61.011,56.195 63.961,56.417 C70.515,56.144 76.338,52.281 78.291,45.842 C82.016,43.202 84.686,39.536 84.747,34.812 C84.748,27.187 77.576,21.034 68.757,21.035 C67.169,21.094 67.94,21.038 66.443,21.193 C64.157,20.123 61.723,19.342 59.166,19.403 C57.266,19.497 58.175,19.407 56.436,19.653 C52.978,16.432 48.698,14.513 43.919,14.51 z" fill="rgba(0,0,0,0.75)" clip-path="url(#Clip_1)" filter="url(#Shadow_2)"/>
        <path d="M3.6,9.76 L90.747,9.76 L89.497,8.51 L89.497,65.355 L90.747,64.105 L3.6,64.105 L4.85,65.355 L4.85,8.51 L3.6,9.76 z M3.6,7.26 C2.91,7.26 2.35,7.819 2.35,8.51 L2.35,65.355 C2.35,66.045 2.91,66.605 3.6,66.605 L90.747,66.605 C91.438,66.605 91.997,66.045 91.997,65.355 L91.997,8.51 C91.997,7.819 91.438,7.26 90.747,7.26 L3.6,7.26 z M43.919,13.26 L43.918,13.26 C37.037,13.693 31.508,16.483 28.175,21.692 L29.151,21.118 C17.749,21.822 8.66,29.24 8.351,39.831 C8.35,50.288 18.024,58.645 29.871,58.646 C30.267,58.631 31.522,58.589 31.726,58.573 C31.945,58.557 33.347,58.386 33.472,58.371 L32.911,58.308 C37.504,59.931 41.088,60.654 45.133,60.602 C51.157,60.419 56.074,59.313 60.3,56.864 L59.394,57.001 C59.462,57.017 61.271,57.448 61.569,57.491 C61.841,57.53 63.424,57.63 63.867,57.663 L64.013,57.666 C71.309,57.362 77.434,52.974 79.487,46.205 L79.014,46.862 C83.393,43.759 85.935,39.666 85.997,34.828 C85.998,26.461 78.238,19.784 68.757,19.785 C68.446,19.795 67.621,19.821 67.483,19.831 C67.326,19.841 66.318,19.95 66.314,19.95 L66.973,20.061 C64.191,18.759 61.676,18.093 59.136,18.154 C58.748,18.172 57.794,18.212 57.631,18.226 C57.436,18.243 56.138,18.433 56.261,18.416 L57.288,18.739 C53.489,15.2 48.883,13.263 43.92,13.26 z M43.918,15.76 C48.228,15.763 52.234,17.447 55.584,20.568 C55.86,20.825 56.237,20.944 56.611,20.891 C56.64,20.887 57.739,20.726 57.85,20.717 C57.945,20.708 58.805,20.673 59.227,20.652 C61.297,20.603 63.452,21.173 65.913,22.325 C66.118,22.422 66.346,22.46 66.572,22.437 C66.67,22.426 67.552,22.332 67.649,22.325 C67.737,22.319 68.485,22.296 68.804,22.284 C76.934,22.284 83.498,27.932 83.497,34.812 C83.446,38.759 81.341,42.149 77.568,44.823 C77.342,44.983 77.175,45.214 77.095,45.48 C75.362,51.194 70.179,54.907 63.909,55.168 L64.055,55.17 C63.483,55.127 62.082,55.039 61.927,55.017 C61.759,54.992 60.213,54.624 59.951,54.564 C59.643,54.494 59.32,54.543 59.046,54.701 C55.229,56.913 50.701,57.932 45.079,58.103 C41.385,58.15 38.081,57.483 33.743,55.951 C33.564,55.888 33.372,55.866 33.182,55.888 C32.961,55.914 31.69,56.069 31.537,56.08 C31.394,56.091 30.237,56.13 29.821,56.147 C19.33,56.145 10.85,48.819 10.85,39.867 C11.117,30.748 19.087,24.244 29.305,23.613 C29.703,23.589 30.066,23.375 30.281,23.039 C33.148,18.558 37.938,16.141 43.997,15.757 L43.919,15.76 z" fill="rgba(0,0,0,0.75)" clip-path="url(#Clip_1)" filter="url(#Shadow_2)"/>
      </g>
    </g>
    <g id="path4149">
      <path d="M97.447,34.122 C94.882,39.82 86.369,41.542 78.433,37.969 C70.498,34.396 66.144,26.881 68.709,21.183 C71.275,15.486 79.787,13.763 87.723,17.337 C95.659,20.91 100.013,28.425 97.447,34.122 z" fill="#000000"/>
      <path d="M97.447,34.122 C94.882,39.82 86.369,41.542 78.433,37.969 C70.498,34.396 66.144,26.881 68.709,21.183 C71.275,15.486 79.787,13.763 87.723,17.337 C95.659,20.91 100.013,28.425 97.447,34.122 z" fill-opacity="0" stroke="#000000" stroke-width="0.8"/>
    </g>
    <g id="path4151">
      <path d="M74.016,20.309 C73.092,21.117 70.617,19.797 68.487,17.361 C66.357,14.926 65.379,12.296 66.303,11.488 C67.227,10.68 69.702,12 71.832,14.435 C73.962,16.871 74.94,19.501 74.016,20.309 z" fill="#000000"/>
      <path d="M74.016,20.309 C73.092,21.117 70.617,19.797 68.487,17.361 C66.357,14.926 65.379,12.296 66.303,11.488 C67.227,10.68 69.702,12 71.832,14.435 C73.962,16.871 74.94,19.501 74.016,20.309 z" fill-opacity="0" stroke="#000000" stroke-width="0.8"/>
    </g>
    <g id="ellipse4153">
      <path d="M79.822,21.063 C78.605,21.222 77.278,18.75 76.859,15.542 C76.439,12.333 77.085,9.603 78.302,9.444 C79.519,9.285 80.846,11.756 81.266,14.965 C81.686,18.173 81.039,20.903 79.822,21.063 z" fill="#000000"/>
      <path d="M79.822,21.063 C78.605,21.222 77.278,18.75 76.859,15.542 C76.439,12.333 77.085,9.603 78.302,9.444 C79.519,9.285 80.846,11.756 81.266,14.965 C81.686,18.173 81.039,20.903 79.822,21.063 z" fill-opacity="0" stroke="#000000" stroke-width="0.8"/>
    </g>
    <g id="ellipse4153">
      <path d="M4.549,42.675 C3.506,42.028 4.043,39.275 5.748,36.525 C7.453,33.775 9.681,32.07 10.725,32.717 C11.768,33.364 11.231,36.117 9.525,38.867 C7.82,41.617 5.592,43.322 4.549,42.675 z" fill="#000000"/>
      <path d="M4.549,42.675 C3.506,42.028 4.043,39.275 5.748,36.525 C7.453,33.775 9.681,32.07 10.725,32.717 C11.768,33.364 11.231,36.117 9.525,38.867 C7.82,41.617 5.592,43.322 4.549,42.675 z" fill-opacity="0" stroke="#000000" stroke-width="0.8"/>
    </g>
    <path d="M65.359,56.19 L68.614,64.256 L66.916,70.483" fill-opacity="0" stroke="#000000" stroke-width="3" stroke-linecap="round"/>
    <path d="M66.633,52.793 L65.642,64.256 L62,71.5" fill-opacity="0" stroke="#000000" stroke-width="3" stroke-linecap="round"/>
    <path d="M25.876,54.492 L22.621,64.681 L23.612,72.04" fill-opacity="0" stroke="#000000" stroke-width="3" stroke-linecap="round"/>
    <path d="M26.017,56.473 L27.15,65.53 L31,71.5" fill-opacity="0" stroke="#000000" stroke-width="3" stroke-linecap="round"/>
    <path d="M78.224,26.17 C77.117,26.149 76.235,25.321 76.253,24.32 C76.271,23.319 77.184,22.524 78.29,22.544 C79.397,22.564 80.28,23.392 80.261,24.394 C80.243,25.395 79.331,26.19 78.224,26.17 z" fill="#044192"/>
    <path d="M64.227,61.284" fill-opacity="0" stroke="#000000" stroke-width="3"/>
    <path d="M63.237,65.954" fill-opacity="0" stroke="#000000" stroke-width="3"/>
  </g>
</svg>
