<?xml version="1.0" encoding="UTF-8"?>
<!DOCTYPE svg PUBLIC "-//W3C//DTD SVG 1.1//EN" "http://www.w3.org/Graphics/SVG/1.1/DTD/svg11.dtd">
<svg version="1.1" xmlns="http://www.w3.org/2000/svg" xmlns:xlink="http://www.w3.org/1999/xlink" x="0" y="0" width="100" height="75" viewBox="0, 0, 100, 75">
  <defs>
    <clipPath id="Clip_1">
      <path d="M43.919,29.51 C48.698,29.513 52.978,31.432 56.436,34.653 C58.175,34.407 57.266,34.497 59.166,34.403 C61.723,34.342 64.157,35.123 66.443,36.193 C67.94,36.038 67.169,36.094 68.757,36.035 C77.576,36.034 84.748,42.187 84.747,49.812 C84.686,54.536 82.016,58.202 78.291,60.842 C76.338,67.281 70.515,71.144 63.961,71.417 C61.011,71.195 62.439,71.415 59.672,70.783 C55.699,73.063 51.004,72.875 46.574,72.902 C46.056,72.901 45.819,72.901 45.525,72.901 C44.697,72.901 44.005,72.92 42.508,72.977 L42.472,72.978 C39.385,73.121 36.257,73.226 33.323,72.13 C31.067,72.394 32.217,72.302 29.871,72.396 C18.687,72.395 9.6,64.562 9.6,54.867 C9.91,44.234 19.401,37.972 29.228,37.366 C32.538,32.194 37.989,29.885 43.918,29.51 L43.919,29.51 z"/>
    </clipPath>
    <filter id="Shadow_2">
      <feGaussianBlur in="SourceAlpha" stdDeviation="2.5"/>
      <feOffset dx="0" dy="0" result="offsetblur"/>
      <feFlood flood-color="#C0C1C2"/>
      <feComposite in2="offsetblur" operator="in"/>
    </filter>
  </defs>
  <g id="Layer_1">
    <g id="path4136">
      <path d="M43.918,29.91 C37.958,29.916 32.447,32.902 29.441,37.753 C18.641,37.954 10.006,45.556 10,54.867 C10,64.327 18.896,71.995 29.871,71.996 C31.045,71.994 32.217,71.902 33.372,71.722 C36.86,73.174 41.35,72.498 45.526,72.501 C50.9,72.497 55.667,72.666 59.616,70.361 C61.022,70.795 62.487,71.016 63.961,71.017 C70.463,71.011 76.173,66.757 77.953,60.592 C81.965,58.078 84.34,54.074 84.347,49.811 C84.348,42.423 77.367,36.434 68.757,36.435 C67.959,36.438 67.163,36.494 66.375,36.602 C64.267,35.434 61.748,34.806 59.165,34.803 C58.201,34.807 57.241,34.899 56.303,35.076 C53.128,31.791 48.633,29.916 43.918,29.91 z" fill="#FFFFFF"/>
      <path d="M43.918,29.91 C37.958,29.916 32.447,32.902 29.441,37.753 C18.641,37.954 10.006,45.556 10,54.867 C10,64.327 18.896,71.995 29.871,71.996 C31.045,71.994 32.217,71.902 33.372,71.722 C36.86,73.174 41.35,72.498 45.526,72.501 C50.9,72.497 55.667,72.666 59.616,70.361 C61.022,70.795 62.487,71.016 63.961,71.017 C70.463,71.011 76.173,66.757 77.953,60.592 C81.965,58.078 84.34,54.074 84.347,49.811 C84.348,42.423 77.367,36.434 68.757,36.435 C67.959,36.438 67.163,36.494 66.375,36.602 C64.267,35.434 61.748,34.806 59.165,34.803 C58.201,34.807 57.241,34.899 56.303,35.076 C53.128,31.791 48.633,29.916 43.918,29.91 z" fill-opacity="0" stroke="#000000" stroke-width="0.8"/>
      <g>
        <path d="M3.6,23.51 L90.747,23.51 L90.747,79.065 L3.6,79.065 z M43.919,29.51 L43.918,29.51 C37.989,29.885 32.538,32.194 29.228,37.366 C19.401,37.972 9.91,44.234 9.6,54.867 C9.6,64.562 18.687,72.395 29.871,72.396 C32.217,72.302 31.067,72.394 33.323,72.13 C36.257,73.226 39.385,73.121 42.472,72.978 L42.508,72.977 C44.005,72.92 44.697,72.901 45.525,72.901 C45.819,72.901 46.056,72.901 46.574,72.902 C51.004,72.875 55.699,73.063 59.672,70.783 C62.439,71.415 61.011,71.195 63.961,71.417 C70.515,71.144 76.338,67.281 78.291,60.842 C82.016,58.202 84.686,54.536 84.747,49.812 C84.748,42.187 77.576,36.034 68.757,36.035 C67.169,36.094 67.94,36.038 66.443,36.193 C64.157,35.123 61.723,34.342 59.166,34.403 C57.266,34.497 58.175,34.407 56.436,34.653 C52.978,31.432 48.698,29.513 43.919,29.51 z" fill="rgba(0,0,0,0.75)" clip-path="url(#Clip_1)" filter="url(#Shadow_2)"/>
        <path d="M3.6,24.76 L90.747,24.76 L89.497,23.51 L89.497,79.065 L90.747,77.815 L3.6,77.815 L4.85,79.065 L4.85,23.51 L3.6,24.76 z M3.6,22.26 C2.91,22.26 2.35,22.819 2.35,23.51 L2.35,79.065 C2.35,79.756 2.91,80.315 3.6,80.315 L90.747,80.315 C91.438,80.315 91.997,79.756 91.997,79.065 L91.997,23.51 C91.997,22.819 91.438,22.26 90.747,22.26 L3.6,22.26 z M43.919,28.26 L43.918,28.26 C37.037,28.693 31.508,31.483 28.175,36.692 L29.151,36.118 C17.749,36.822 8.66,44.24 8.351,54.831 C8.35,65.288 18.024,73.645 29.871,73.646 C30.271,73.631 31.521,73.589 31.725,73.573 C31.944,73.557 33.348,73.386 33.468,73.372 L32.885,73.301 C35.557,74.299 37.898,74.441 42.53,74.227 L42.556,74.226 C44.109,74.167 44.749,74.151 45.524,74.151 C45.806,74.151 46.027,74.151 46.573,74.152 C46.877,74.15 47.115,74.149 47.65,74.148 C48.922,74.145 49.492,74.141 50.208,74.124 C54.531,74.024 57.535,73.451 60.295,71.867 L59.394,72.001 C59.462,72.017 61.271,72.448 61.569,72.491 C61.841,72.53 63.425,72.63 63.867,72.663 L64.013,72.666 C71.309,72.362 77.434,67.974 79.487,61.205 L79.014,61.862 C83.393,58.759 85.935,54.666 85.997,49.828 C85.998,41.461 78.238,34.784 68.757,34.785 C68.446,34.795 67.621,34.821 67.483,34.831 C67.326,34.841 66.318,34.95 66.314,34.95 L66.973,35.061 C64.191,33.759 61.676,33.093 59.136,33.154 C58.748,33.172 57.794,33.212 57.631,33.226 C57.436,33.243 56.138,33.433 56.261,33.416 L57.288,33.739 C53.489,30.2 48.883,28.263 43.92,28.26 z M43.918,30.76 C48.228,30.763 52.234,32.447 55.584,35.568 C55.86,35.825 56.237,35.944 56.611,35.891 C56.64,35.887 57.739,35.726 57.85,35.717 C57.945,35.708 58.805,35.673 59.227,35.652 C61.297,35.603 63.452,36.173 65.913,37.325 C66.118,37.422 66.346,37.46 66.572,37.437 C66.67,37.426 67.552,37.332 67.649,37.325 C67.737,37.319 68.485,37.296 68.804,37.284 C76.934,37.284 83.498,42.932 83.497,49.812 C83.446,53.759 81.341,57.149 77.568,59.823 C77.342,59.983 77.175,60.214 77.095,60.48 C75.362,66.194 70.179,69.907 63.909,70.168 L64.055,70.17 C63.483,70.127 62.082,70.039 61.927,70.017 C61.759,69.992 60.213,69.624 59.951,69.564 C59.644,69.494 59.323,69.542 59.05,69.699 C56.73,71.03 54.093,71.533 50.15,71.625 C49.457,71.641 48.899,71.645 47.644,71.648 C47.106,71.649 46.866,71.65 46.566,71.652 C46.028,71.651 45.806,71.651 45.524,71.651 C44.712,71.651 44.044,71.668 42.461,71.727 L42.424,71.729 C38.11,71.928 36.016,71.802 33.76,70.959 C33.574,70.89 33.375,70.866 33.178,70.889 C32.962,70.914 31.689,71.069 31.536,71.08 C31.394,71.091 30.24,71.13 29.821,71.147 C19.33,71.145 10.85,63.819 10.85,54.867 C11.117,45.748 19.087,39.244 29.305,38.613 C29.703,38.589 30.066,38.375 30.281,38.039 C33.148,33.558 37.938,31.141 43.997,30.757 L43.919,30.76 z" fill="rgba(0,0,0,0.75)" clip-path="url(#Clip_1)" filter="url(#Shadow_2)"/>
      </g>
    </g>
    <g id="path4149">
      <path d="M96.447,59.122 C93.882,64.82 85.369,66.542 77.433,62.969 C69.498,59.396 65.144,51.881 67.709,46.183 C70.275,40.486 78.787,38.763 86.723,42.337 C94.659,45.91 99.013,53.425 96.447,59.122 z" fill="#000000"/>
      <path d="M96.447,59.122 C93.882,64.82 85.369,66.542 77.433,62.969 C69.498,59.396 65.144,51.881 67.709,46.183 C70.275,40.486 78.787,38.763 86.723,42.337 C94.659,45.91 99.013,53.425 96.447,59.122 z" fill-opacity="0" stroke="#000000" stroke-width="0.8"/>
    </g>
    <g id="path4151">
      <path d="M75.554,45.185 C75.075,46.315 72.271,46.207 69.292,44.945 C66.313,43.682 64.286,41.742 64.765,40.612 C65.244,39.482 68.048,39.589 71.027,40.852 C74.006,42.115 76.033,44.055 75.554,45.185 z" fill="#000000"/>
      <path d="M75.554,45.185 C75.075,46.315 72.271,46.207 69.292,44.945 C66.313,43.682 64.286,41.742 64.765,40.612 C65.244,39.482 68.048,39.589 71.027,40.852 C74.006,42.115 76.033,44.055 75.554,45.185 z" fill-opacity="0" stroke="#000000" stroke-width="0.8"/>
    </g>
    <g id="ellipse4153">
      <path d="M76.465,47.89 C75.285,47.556 75.042,44.761 75.924,41.648 C76.806,38.534 78.478,36.282 79.659,36.616 C80.84,36.951 81.082,39.746 80.2,42.859 C79.319,45.972 77.646,48.225 76.465,47.89 z" fill="#000000"/>
      <path d="M76.465,47.89 C75.285,47.556 75.042,44.761 75.924,41.648 C76.806,38.534 78.478,36.282 79.659,36.616 C80.84,36.951 81.082,39.746 80.2,42.859 C79.319,45.972 77.646,48.225 76.465,47.89 z" fill-opacity="0" stroke="#000000" stroke-width="0.8"/>
    </g>
    <g id="ellipse4153">
      <path d="M4.549,57.675 C3.506,57.028 4.043,54.275 5.748,51.525 C7.453,48.775 9.681,47.07 10.725,47.717 C11.768,48.364 11.231,51.117 9.525,53.867 C7.82,56.617 5.592,58.322 4.549,57.675 z" fill="#000000"/>
      <path d="M4.549,57.675 C3.506,57.028 4.043,54.275 5.748,51.525 C7.453,48.775 9.681,47.07 10.725,47.717 C11.768,48.364 11.231,51.117 9.525,53.867 C7.82,56.617 5.592,58.322 4.549,57.675 z" fill-opacity="0" stroke="#000000" stroke-width="0.8"/>
    </g>
    <path d="M65.359,71.19 L67.537,71.382 L62.936,72.128" fill-opacity="0" stroke="#000000" stroke-width="3" stroke-linecap="round"/>
    <path d="M66.633,67.793 L67.662,70.76 L60.946,71.88" fill-opacity="0" stroke="#000000" stroke-width="3" stroke-linecap="round"/>
    <path d="M25.876,69.492 L18.913,70.885 L23.763,72.004" fill-opacity="0" stroke="#000000" stroke-width="3" stroke-linecap="round"/>
    <path d="M26.017,71.473 L21.773,71.631 L26.996,72.377" fill-opacity="0" stroke="#000000" stroke-width="3" stroke-linecap="round"/>
    <path d="M75.403,48.757 C75.656,49.77 76.377,50.371 77.397,50.492 C78.112,50.441 78.927,50.049 79.189,49.32 L79.24,49.287 L79.261,49.393 C79.243,50.395 78.331,51.19 77.224,51.17 C76.117,51.149 75.235,50.321 75.253,49.32 C75.293,49.127 75.306,48.93 75.403,48.757 z" fill="#044192"/>
    <path d="M89.217,37.003 C89.217,36.836 89.133,36.745 88.981,36.745 C88.959,36.745 88.883,36.783 88.746,36.859 C88.602,36.935 88.344,37.011 87.979,37.071 C87.646,37.132 87.38,37.163 87.19,37.163 C86.902,37.163 86.765,37.094 86.765,36.95 C86.765,36.791 86.947,36.54 87.319,36.199 C87.479,36.055 87.79,35.804 88.245,35.44 C88.465,35.258 88.579,35.113 88.579,35 C88.579,34.825 88.42,34.696 88.101,34.605 C87.873,34.544 87.623,34.506 87.357,34.506 C86.841,34.506 86.355,34.582 85.892,34.719 C85.756,34.757 85.695,34.84 85.695,34.969 C85.695,35.129 85.763,35.205 85.9,35.205 C85.93,35.205 86.029,35.189 86.181,35.159 C86.758,35.06 87.16,35.007 87.395,35.007 C87.592,35.007 87.782,35.03 87.979,35.076 C86.864,35.926 86.31,36.586 86.31,37.056 C86.31,37.269 86.416,37.421 86.644,37.527 C86.811,37.603 87.023,37.648 87.274,37.648 C87.479,37.648 87.759,37.61 88.116,37.534 C88.465,37.459 88.738,37.383 88.951,37.292 C89.125,37.216 89.217,37.125 89.217,37.003 z" fill="#000000"/>
    <path d="M91.333,31.405 C91.333,31.165 91.213,31.034 90.996,31.034 C90.963,31.034 90.854,31.089 90.658,31.198 C90.451,31.307 90.08,31.416 89.558,31.503 C89.078,31.59 88.697,31.634 88.425,31.634 C88.011,31.634 87.815,31.536 87.815,31.329 C87.815,31.1 88.076,30.74 88.61,30.25 C88.839,30.043 89.285,29.684 89.939,29.161 C90.255,28.899 90.418,28.692 90.418,28.529 C90.418,28.278 90.189,28.093 89.732,27.962 C89.405,27.875 89.046,27.821 88.664,27.821 C87.924,27.821 87.226,27.93 86.562,28.126 C86.366,28.18 86.279,28.3 86.279,28.485 C86.279,28.714 86.377,28.823 86.573,28.823 C86.616,28.823 86.758,28.801 86.976,28.758 C87.804,28.616 88.381,28.54 88.719,28.54 C89.002,28.54 89.274,28.573 89.558,28.638 C87.956,29.858 87.161,30.806 87.161,31.481 C87.161,31.786 87.314,32.004 87.64,32.156 C87.88,32.265 88.185,32.331 88.544,32.331 C88.839,32.331 89.242,32.276 89.754,32.167 C90.255,32.058 90.647,31.949 90.952,31.819 C91.202,31.71 91.333,31.579 91.333,31.405 z" fill="#000000"/>
  </g>
</svg>
